<svg width="432" height="432" viewBox="0 0 432 432" fill="none" xmlns="http://www.w3.org/2000/svg">
<path d="M215.222 7.06998C99.762 7.06998 6.16199 100.672 6.16199 216.13C6.16199 331.588 99.764 425.19 215.222 425.19C330.68 425.19 424.282 331.588 424.282 216.13C424.282 100.672 330.68 7.06998 215.222 7.06998ZM215.222 140.13C257.189 140.13 291.222 174.163 291.222 216.13C291.222 258.097 257.189 292.13 215.222 292.13C173.255 292.13 139.222 258.097 139.222 216.13C139.222 174.163 173.255 140.13 215.222 140.13Z" fill="#A1EA7F"/>
<path d="M427.822 216.14C427.822 98.72 332.641 3.53998 215.222 3.53998C97.803 3.53998 2.62201 98.721 2.62201 216.14C2.62201 333.559 97.803 428.74 215.222 428.74C332.641 428.74 427.822 333.559 427.822 216.14ZM241.782 216.14C241.782 230.817 229.896 242.703 215.219 242.703C200.542 242.703 188.656 230.817 188.656 216.14C188.656 201.463 200.542 189.546 215.219 189.546C229.896 189.546 241.782 201.463 241.782 216.14Z" fill="url(#paint0_linear_37_148)"/>
<g filter="url(#filter0_f_37_148)">
<path d="M24.128 137.45C16.9218 155.419 12.129 174.542 10.097 194.294L139.727 206.544C140.591 199.541 142.413 192.757 145.05 186.388L24.1301 137.458L24.128 137.45Z" fill="url(#paint1_radial_37_148)"/>
</g>
<g filter="url(#filter1_f_37_148)">
<path d="M289.512 228.3C288.696 233.471 287.343 238.48 285.543 243.3L406.463 292.206C411.354 279.539 415.033 266.36 417.417 252.768L289.517 228.298L289.512 228.3Z" fill="url(#paint2_radial_37_148)"/>
</g>
<g filter="url(#filter2_f_37_148)">
<path d="M160.712 269.8L72.927 367.55C79.9558 374.331 87.448 380.596 95.327 386.3L168.681 277.02C165.857 274.815 163.21 272.394 160.712 269.801L160.712 269.8Z" fill="url(#paint3_radial_37_148)"/>
</g>
<g filter="url(#filter3_f_37_148)">
<path d="M388.782 109.17L278.592 176.108C282.198 181.801 285.053 188.015 287.03 194.608L411.69 161.548C406.512 142.884 398.728 125.273 388.784 109.173L388.782 109.17Z" fill="url(#paint4_linear_37_148)"/>
</g>
<path d="M215.222 187.47C199.391 187.47 186.554 200.307 186.554 216.138C186.554 231.969 199.391 244.806 215.222 244.806C231.053 244.806 243.89 231.969 243.89 216.138C243.89 200.307 231.053 187.47 215.222 187.47ZM215.222 188.292C230.6 188.292 243.068 200.761 243.068 216.138C243.068 231.516 230.599 243.984 215.222 243.984C199.844 243.984 187.376 231.515 187.376 216.138C187.376 200.76 199.845 188.292 215.222 188.292Z" fill="url(#paint5_linear_37_148)"/>
<path d="M215.222 146.99C177.036 146.99 146.072 177.953 146.072 216.14C146.072 254.326 177.035 285.29 215.222 285.29C253.408 285.29 284.372 254.327 284.372 216.14C284.372 177.954 253.409 146.99 215.222 146.99ZM215.222 148.972C252.315 148.972 282.39 179.047 282.39 216.14C282.39 253.233 252.315 283.308 215.222 283.308C178.129 283.308 148.054 253.233 148.054 216.14C148.054 179.047 178.129 148.972 215.222 148.972Z" fill="url(#paint6_linear_37_148)"/>
<g filter="url(#filter4_f_37_148)">
<path d="M215.252 12.3C195.412 12.3 176.26 15.1383 158.127 20.425L196.533 143.585C202.519 142.044 208.785 141.21 215.252 141.21C229.789 141.21 243.386 145.325 254.877 152.491L321.815 42.371C290.808 23.318 254.313 12.309 215.255 12.309L215.252 12.3Z" fill="url(#paint7_radial_37_148)"/>
</g>
<g filter="url(#filter5_f_37_148)">
<path d="M253.942 280.33C242.648 287.15 229.407 291.08 215.254 291.08C201.294 291.08 188.227 287.261 177.035 280.611L110.129 390.801C140.826 409.32 176.79 419.989 215.249 419.989C251.26 419.989 285.109 410.627 314.468 394.239L253.948 280.329L253.942 280.33Z" fill="url(#paint8_radial_37_148)"/>
</g>
<g filter="url(#filter6_f_37_148)">
<path d="M79.812 63.83C70.4603 72.1546 61.874 81.336 54.187 91.236L157.777 168.111C160.731 164.58 163.98 161.327 167.527 158.392L79.817 63.8322L79.812 63.83Z" fill="#A9C386"/>
</g>
<g filter="url(#filter7_f_37_148)">
<path d="M320.062 398.99C331.957 392.384 343.23 384.617 353.75 375.678L269.16 274.078C265.229 277.538 260.983 280.556 256.504 283.109L320.066 398.989L320.062 398.99Z" fill="url(#paint9_radial_37_148)"/>
</g>
<g filter="url(#filter8_f_37_148)">
<path d="M16.472 270.39L143.502 233.55C142.694 230.024 142.152 226.446 141.846 222.831L10.8758 241.456C12.0641 251.23 13.9301 260.9 16.4696 270.394L16.472 270.39Z" fill="url(#paint10_radial_37_148)"/>
</g>
<g filter="url(#filter9_f_37_148)">
<path d="M294.062 203.2L425.442 188.044C423.692 175.312 420.791 162.761 416.755 150.575L290.375 189.575C292.02 193.999 293.249 198.55 294.062 203.2Z" fill="url(#paint11_radial_37_148)"/>
</g>
<g filter="url(#filter10_f_37_148)">
<path d="M144.252 240.11L23.252 284.672C27.778 297.353 33.52 309.417 40.346 320.797L150.536 253.897C147.998 249.557 145.888 244.955 144.255 240.116L144.252 240.11Z" fill="url(#paint12_linear_37_148)"/>
</g>
<path d="M215.222 277.76C249.247 277.76 276.836 250.171 276.836 216.146C276.836 182.121 249.247 154.532 215.222 154.532C181.197 154.532 153.608 182.121 153.608 216.146C153.608 250.171 181.197 277.76 215.222 277.76ZM215.222 275.994C182.172 275.994 155.374 249.196 155.374 216.146C155.374 183.096 182.172 156.298 215.222 156.298C248.272 156.298 275.07 183.096 275.07 216.146C275.07 249.196 248.272 275.994 215.222 275.994Z" fill="url(#paint13_linear_37_148)"/>
<path d="M154.902 216.14C154.902 249.451 181.912 276.461 215.223 276.461C248.534 276.461 275.544 249.451 275.544 216.14C275.544 182.829 248.534 155.819 215.223 155.819C181.912 155.819 154.902 182.829 154.902 216.14ZM156.631 216.14C156.631 183.783 182.867 157.548 215.223 157.548C247.58 157.548 273.815 183.784 273.815 216.14C273.815 248.497 247.579 274.732 215.223 274.732C182.866 274.732 156.631 248.496 156.631 216.14Z" fill="url(#paint14_linear_37_148)"/>
<g filter="url(#filter11_f_37_148)">
<path d="M213.002 12.3C174.538 12.3 138.574 22.969 107.882 41.488L174.788 151.678C185.98 145.029 199.047 141.209 213.007 141.209C227.16 141.209 240.401 145.139 251.695 151.959L312.226 38.049C282.867 21.661 249.018 12.299 213.007 12.299L213.002 12.3ZM252.627 279.8C241.136 286.966 227.539 291.081 213.002 291.081C206.535 291.081 200.27 290.247 194.283 288.706L155.877 411.866C174.01 417.153 193.162 419.991 213.002 419.991C252.063 419.991 288.558 408.982 319.562 389.929L252.624 279.809L252.627 279.8Z" fill="url(#paint15_linear_37_148)"/>
</g>
<g filter="url(#filter12_f_37_148)">
<path d="M351.752 67.02L265.877 163.27C268.371 165.765 270.657 168.442 272.783 171.27L371.377 88.051C365.332 80.5899 358.768 73.549 351.752 67.02Z" fill="#97BD84" fill-opacity="0.97401"/>
</g>
<g filter="url(#filter13_f_37_148)">
<path d="M34.253 117.99C27.8452 129.61 22.565 141.872 18.503 154.709L141.033 194.865C142.489 189.969 144.436 185.295 146.814 180.865L34.2542 117.99H34.253Z" fill="#97BD84" fill-opacity="0.97401"/>
</g>
<g filter="url(#filter14_f_37_148)">
<path d="M285.382 235.14C283.646 241.801 280.998 248.101 277.601 253.921L390.161 316.827C399.514 300.377 406.664 282.479 411.161 263.639L285.381 235.139L285.382 235.14Z" fill="#97BD84" fill-opacity="0.97401"/>
</g>
<g filter="url(#filter15_f_37_148)">
<path d="M157.162 266.3L56.442 346.89C64.4838 356.505 73.388 365.379 83.036 373.359L167.255 275.671C163.603 272.867 160.241 269.717 157.161 266.296L157.162 266.3Z" fill="#97BD84" fill-opacity="0.97401"/>
</g>
<path d="M215.222 8.85999C100.752 8.85999 7.94202 101.674 7.94202 216.14C7.94202 330.606 100.756 423.42 215.222 423.42C329.688 423.42 422.502 330.606 422.502 216.14C422.502 101.674 329.688 8.85999 215.222 8.85999ZM215.222 10.2662C328.912 10.2662 421.102 102.454 421.102 216.146C421.102 329.838 328.914 422.026 215.222 422.026C101.53 422.026 9.34201 329.838 9.34201 216.146C9.34201 102.454 101.53 10.2662 215.222 10.2662Z" fill="#333333"/>
<g filter="url(#filter16_f_37_148)">
<path d="M366.412 79.86C358.087 70.5084 348.906 61.922 339.006 54.235L262.131 157.825C265.662 160.779 268.915 164.028 271.85 167.575L366.412 79.856L366.412 79.86Z" fill="url(#paint16_radial_37_148)"/>
</g>
<g filter="url(#filter17_f_37_148)">
<path d="M321.072 388.83L254.134 278.64C248.441 282.246 242.227 285.101 235.634 287.077L268.696 411.738C287.36 406.56 304.971 398.775 321.071 388.831L321.072 388.83Z" fill="url(#paint17_radial_37_148)"/>
</g>
<g filter="url(#filter18_f_37_148)">
<path d="M171.352 276.83C168.448 274.808 165.686 272.607 163.102 270.205L70.039 359.517C76.8192 366.291 84.082 372.591 91.758 378.361L171.352 276.831V276.83Z" fill="url(#paint18_radial_37_148)"/>
</g>
<path d="M215.222 140.14C173.255 140.14 139.222 174.173 139.222 216.14C139.222 258.107 173.255 292.14 215.222 292.14C257.189 292.14 291.222 258.107 291.222 216.14C291.222 174.173 257.189 140.14 215.222 140.14ZM215.222 146.029C253.937 146.029 285.333 177.425 285.333 216.14C285.333 254.855 253.937 286.251 215.222 286.251C176.507 286.251 145.111 254.855 145.111 216.14C145.111 177.425 176.507 146.029 215.222 146.029Z" fill="#4D4D4D"/>
<defs>
<filter id="filter0_f_37_148" x="6.32427" y="133.677" width="142.499" height="76.6394" filterUnits="userSpaceOnUse" color-interpolation-filters="sRGB">
<feFlood flood-opacity="0" result="BackgroundImageFix"/>
<feBlend mode="normal" in="SourceGraphic" in2="BackgroundImageFix" result="shape"/>
<feGaussianBlur stdDeviation="1.88636" result="effect1_foregroundBlur_37_148"/>
</filter>
<filter id="filter1_f_37_148" x="281.77" y="224.525" width="139.419" height="71.4534" filterUnits="userSpaceOnUse" color-interpolation-filters="sRGB">
<feFlood flood-opacity="0" result="BackgroundImageFix"/>
<feBlend mode="normal" in="SourceGraphic" in2="BackgroundImageFix" result="shape"/>
<feGaussianBlur stdDeviation="1.88636" result="effect1_foregroundBlur_37_148"/>
</filter>
<filter id="filter2_f_37_148" x="69.1543" y="266.027" width="103.299" height="124.045" filterUnits="userSpaceOnUse" color-interpolation-filters="sRGB">
<feFlood flood-opacity="0" result="BackgroundImageFix"/>
<feBlend mode="normal" in="SourceGraphic" in2="BackgroundImageFix" result="shape"/>
<feGaussianBlur stdDeviation="1.88636" result="effect1_foregroundBlur_37_148"/>
</filter>
<filter id="filter3_f_37_148" x="270.482" y="101.06" width="149.318" height="101.658" filterUnits="userSpaceOnUse" color-interpolation-filters="sRGB">
<feFlood flood-opacity="0" result="BackgroundImageFix"/>
<feBlend mode="normal" in="SourceGraphic" in2="BackgroundImageFix" result="shape"/>
<feGaussianBlur stdDeviation="4.055" result="effect1_foregroundBlur_37_148"/>
</filter>
<filter id="filter4_f_37_148" x="150.017" y="4.18999" width="179.908" height="156.411" filterUnits="userSpaceOnUse" color-interpolation-filters="sRGB">
<feFlood flood-opacity="0" result="BackgroundImageFix"/>
<feBlend mode="normal" in="SourceGraphic" in2="BackgroundImageFix" result="shape"/>
<feGaussianBlur stdDeviation="4.055" result="effect1_foregroundBlur_37_148"/>
</filter>
<filter id="filter5_f_37_148" x="102.019" y="272.219" width="220.559" height="155.88" filterUnits="userSpaceOnUse" color-interpolation-filters="sRGB">
<feFlood flood-opacity="0" result="BackgroundImageFix"/>
<feBlend mode="normal" in="SourceGraphic" in2="BackgroundImageFix" result="shape"/>
<feGaussianBlur stdDeviation="4.055" result="effect1_foregroundBlur_37_148"/>
</filter>
<filter id="filter6_f_37_148" x="46.077" y="55.72" width="129.56" height="120.501" filterUnits="userSpaceOnUse" color-interpolation-filters="sRGB">
<feFlood flood-opacity="0" result="BackgroundImageFix"/>
<feBlend mode="normal" in="SourceGraphic" in2="BackgroundImageFix" result="shape"/>
<feGaussianBlur stdDeviation="4.055" result="effect1_foregroundBlur_37_148"/>
</filter>
<filter id="filter7_f_37_148" x="252.993" y="270.567" width="104.268" height="131.934" filterUnits="userSpaceOnUse" color-interpolation-filters="sRGB">
<feFlood flood-opacity="0" result="BackgroundImageFix"/>
<feBlend mode="normal" in="SourceGraphic" in2="BackgroundImageFix" result="shape"/>
<feGaussianBlur stdDeviation="1.7554" result="effect1_foregroundBlur_37_148"/>
</filter>
<filter id="filter8_f_37_148" x="7.365" y="219.32" width="139.648" height="54.5846" filterUnits="userSpaceOnUse" color-interpolation-filters="sRGB">
<feFlood flood-opacity="0" result="BackgroundImageFix"/>
<feBlend mode="normal" in="SourceGraphic" in2="BackgroundImageFix" result="shape"/>
<feGaussianBlur stdDeviation="1.7554" result="effect1_foregroundBlur_37_148"/>
</filter>
<filter id="filter9_f_37_148" x="286.864" y="147.064" width="142.089" height="59.6466" filterUnits="userSpaceOnUse" color-interpolation-filters="sRGB">
<feFlood flood-opacity="0" result="BackgroundImageFix"/>
<feBlend mode="normal" in="SourceGraphic" in2="BackgroundImageFix" result="shape"/>
<feGaussianBlur stdDeviation="1.7554" result="effect1_foregroundBlur_37_148"/>
</filter>
<filter id="filter10_f_37_148" x="15.142" y="232" width="143.504" height="96.907" filterUnits="userSpaceOnUse" color-interpolation-filters="sRGB">
<feFlood flood-opacity="0" result="BackgroundImageFix"/>
<feBlend mode="normal" in="SourceGraphic" in2="BackgroundImageFix" result="shape"/>
<feGaussianBlur stdDeviation="4.055" result="effect1_foregroundBlur_37_148"/>
</filter>
<filter id="filter11_f_37_148" x="99.772" y="4.18895" width="227.9" height="423.912" filterUnits="userSpaceOnUse" color-interpolation-filters="sRGB">
<feFlood flood-opacity="0" result="BackgroundImageFix"/>
<feBlend mode="normal" in="SourceGraphic" in2="BackgroundImageFix" result="shape"/>
<feGaussianBlur stdDeviation="4.055" result="effect1_foregroundBlur_37_148"/>
</filter>
<filter id="filter12_f_37_148" x="257.767" y="58.91" width="121.72" height="120.47" filterUnits="userSpaceOnUse" color-interpolation-filters="sRGB">
<feFlood flood-opacity="0" result="BackgroundImageFix"/>
<feBlend mode="normal" in="SourceGraphic" in2="BackgroundImageFix" result="shape"/>
<feGaussianBlur stdDeviation="4.055" result="effect1_foregroundBlur_37_148"/>
</filter>
<filter id="filter13_f_37_148" x="10.393" y="109.88" width="144.531" height="93.095" filterUnits="userSpaceOnUse" color-interpolation-filters="sRGB">
<feFlood flood-opacity="0" result="BackgroundImageFix"/>
<feBlend mode="normal" in="SourceGraphic" in2="BackgroundImageFix" result="shape"/>
<feGaussianBlur stdDeviation="4.055" result="effect1_foregroundBlur_37_148"/>
</filter>
<filter id="filter14_f_37_148" x="269.491" y="227.029" width="149.78" height="97.908" filterUnits="userSpaceOnUse" color-interpolation-filters="sRGB">
<feFlood flood-opacity="0" result="BackgroundImageFix"/>
<feBlend mode="normal" in="SourceGraphic" in2="BackgroundImageFix" result="shape"/>
<feGaussianBlur stdDeviation="4.055" result="effect1_foregroundBlur_37_148"/>
</filter>
<filter id="filter15_f_37_148" x="48.332" y="258.186" width="127.033" height="123.283" filterUnits="userSpaceOnUse" color-interpolation-filters="sRGB">
<feFlood flood-opacity="0" result="BackgroundImageFix"/>
<feBlend mode="normal" in="SourceGraphic" in2="BackgroundImageFix" result="shape"/>
<feGaussianBlur stdDeviation="4.055" result="effect1_foregroundBlur_37_148"/>
</filter>
<filter id="filter16_f_37_148" x="258.707" y="50.8109" width="111.129" height="120.188" filterUnits="userSpaceOnUse" color-interpolation-filters="sRGB">
<feFlood flood-opacity="0" result="BackgroundImageFix"/>
<feBlend mode="normal" in="SourceGraphic" in2="BackgroundImageFix" result="shape"/>
<feGaussianBlur stdDeviation="1.71203" result="effect1_foregroundBlur_37_148"/>
</filter>
<filter id="filter17_f_37_148" x="232.21" y="275.216" width="92.2862" height="139.946" filterUnits="userSpaceOnUse" color-interpolation-filters="sRGB">
<feFlood flood-opacity="0" result="BackgroundImageFix"/>
<feBlend mode="normal" in="SourceGraphic" in2="BackgroundImageFix" result="shape"/>
<feGaussianBlur stdDeviation="1.71203" result="effect1_foregroundBlur_37_148"/>
</filter>
<filter id="filter18_f_37_148" x="66.6149" y="266.781" width="108.161" height="115.004" filterUnits="userSpaceOnUse" color-interpolation-filters="sRGB">
<feFlood flood-opacity="0" result="BackgroundImageFix"/>
<feBlend mode="normal" in="SourceGraphic" in2="BackgroundImageFix" result="shape"/>
<feGaussianBlur stdDeviation="1.71203" result="effect1_foregroundBlur_37_148"/>
</filter>
<linearGradient id="paint0_linear_37_148" x1="-1.72999" y1="216.144" x2="213.721" y2="216.144" gradientUnits="userSpaceOnUse">
<stop stop-color="#525252" stop-opacity="0.63478"/>
<stop offset="1" stop-color="#ECECEC" stop-opacity="0.43478"/>
</linearGradient>
<radialGradient id="paint1_radial_37_148" cx="0" cy="0" r="1" gradientUnits="userSpaceOnUse" gradientTransform="translate(213.757 212.673) scale(292.782 250.528)">
<stop stop-color="#8EFF6D"/>
<stop offset="1" stop-color="#9AF978" stop-opacity="0"/>
</radialGradient>
<radialGradient id="paint2_radial_37_148" cx="0" cy="0" r="1" gradientUnits="userSpaceOnUse" gradientTransform="translate(213.757 212.673) scale(292.782 250.528)">
<stop stop-color="#8EFF6D"/>
<stop offset="1" stop-color="#9AF978" stop-opacity="0"/>
</radialGradient>
<radialGradient id="paint3_radial_37_148" cx="0" cy="0" r="1" gradientUnits="userSpaceOnUse" gradientTransform="translate(213.757 212.673) scale(292.782 250.528)">
<stop stop-color="#8EFF6D"/>
<stop offset="1" stop-color="#9AF978" stop-opacity="0"/>
</radialGradient>
<linearGradient id="paint4_linear_37_148" x1="268.862" y1="151.89" x2="421.422" y2="151.89" gradientUnits="userSpaceOnUse">
<stop stop-color="#8EFF6D"/>
<stop offset="1" stop-color="#9AF978" stop-opacity="0"/>
</linearGradient>
<linearGradient id="paint5_linear_37_148" x1="218.471" y1="118.694" x2="214.691" y2="260.604" gradientUnits="userSpaceOnUse">
<stop stop-color="#525252" stop-opacity="0.63478"/>
<stop offset="1" stop-color="#ECECEC" stop-opacity="0.43478"/>
</linearGradient>
<linearGradient id="paint6_linear_37_148" x1="-3.95498" y1="216.144" x2="434.401" y2="216.144" gradientUnits="userSpaceOnUse">
<stop stop-color="#525252" stop-opacity="0.63478"/>
<stop offset="1" stop-color="#ECECEC" stop-opacity="0.43478"/>
</linearGradient>
<radialGradient id="paint7_radial_37_148" cx="0" cy="0" r="1" gradientUnits="userSpaceOnUse" gradientTransform="translate(215.971 216.133) scale(115.58 213.58)">
<stop stop-color="#8EFF6D"/>
<stop offset="1" stop-color="#9AF978" stop-opacity="0"/>
</radialGradient>
<radialGradient id="paint8_radial_37_148" cx="0" cy="0" r="1" gradientUnits="userSpaceOnUse" gradientTransform="translate(215.971 216.133) scale(115.58 213.58)">
<stop stop-color="#8EFF6D"/>
<stop offset="1" stop-color="#9AF978" stop-opacity="0"/>
</radialGradient>
<radialGradient id="paint9_radial_37_148" cx="0" cy="0" r="1" gradientUnits="userSpaceOnUse" gradientTransform="translate(215.141 222.409) rotate(30.0001) scale(184.971 142.04)">
<stop stop-color="#FF70FF"/>
<stop offset="1" stop-color="#FF70FF" stop-opacity="0"/>
</radialGradient>
<radialGradient id="paint10_radial_37_148" cx="0" cy="0" r="1" gradientUnits="userSpaceOnUse" gradientTransform="translate(215.141 222.409) rotate(30.0001) scale(184.971 142.04)">
<stop stop-color="#FF70FF"/>
<stop offset="1" stop-color="#FF70FF" stop-opacity="0"/>
</radialGradient>
<radialGradient id="paint11_radial_37_148" cx="0" cy="0" r="1" gradientUnits="userSpaceOnUse" gradientTransform="translate(215.141 222.409) rotate(30.0001) scale(184.971 142.04)">
<stop stop-color="#FF70FF"/>
<stop offset="1" stop-color="#FF70FF" stop-opacity="0"/>
</radialGradient>
<linearGradient id="paint12_linear_37_148" x1="13.522" y1="280.454" x2="160.271" y2="280.454" gradientUnits="userSpaceOnUse">
<stop stop-color="#8EFF6D"/>
<stop offset="1" stop-color="#9AF978" stop-opacity="0"/>
</linearGradient>
<linearGradient id="paint13_linear_37_148" x1="215.222" y1="154.53" x2="215.222" y2="277.76" gradientUnits="userSpaceOnUse">
<stop stop-color="#525252" stop-opacity="0.63478"/>
<stop offset="1" stop-color="#ECECEC" stop-opacity="0.43478"/>
</linearGradient>
<linearGradient id="paint14_linear_37_148" x1="1.69199" y1="216.14" x2="428.762" y2="216.14" gradientUnits="userSpaceOnUse">
<stop stop-color="#525252" stop-opacity="0.63478"/>
<stop offset="1" stop-color="#ECECEC" stop-opacity="0.43478"/>
</linearGradient>
<linearGradient id="paint15_linear_37_148" x1="9.31202" y1="216.144" x2="216.612" y2="216.144" gradientUnits="userSpaceOnUse">
<stop stop-color="#7EEEBC" stop-opacity="0.81961"/>
<stop offset="1" stop-color="#FDFFDC" stop-opacity="0.8"/>
</linearGradient>
<radialGradient id="paint16_radial_37_148" cx="0" cy="0" r="1" gradientUnits="userSpaceOnUse" gradientTransform="translate(218.241 217.521) rotate(-14.9996) scale(215.475 198.336)">
<stop stop-color="#8EFF6D"/>
<stop offset="1" stop-color="#9AF978" stop-opacity="0"/>
</radialGradient>
<radialGradient id="paint17_radial_37_148" cx="0" cy="0" r="1" gradientUnits="userSpaceOnUse" gradientTransform="translate(218.241 217.521) rotate(-14.9996) scale(215.475 198.336)">
<stop stop-color="#8EFF6D"/>
<stop offset="1" stop-color="#9AF978" stop-opacity="0"/>
</radialGradient>
<radialGradient id="paint18_radial_37_148" cx="0" cy="0" r="1" gradientUnits="userSpaceOnUse" gradientTransform="translate(218.241 217.521) rotate(-14.9996) scale(215.475 198.336)">
<stop stop-color="#8EFF6D"/>
<stop offset="1" stop-color="#9AF978" stop-opacity="0"/>
</radialGradient>
</defs>
</svg>
