<svg width="696" height="696" viewBox="0 0 696 696" fill="none" xmlns="http://www.w3.org/2000/svg">
<g filter="url(#filter0_f_37_93)">
<path d="M679.149 16.7234H15.9173V679.955H679.149V16.7234Z" fill="black" fill-opacity="0.99608"/>
</g>
<path d="M670.01 7.58423H6.77808V670.816H670.01V7.58423Z" fill="#A05A2C" fill-opacity="0.99608"/>
<path d="M658.312 19.2607H18.4534V659.119H658.312V19.2607Z" fill="#784421" fill-opacity="0.99608"/>
<path d="M630.3 47.2842H46.4879V631.096H630.3V47.2842Z" fill="#C87137" fill-opacity="0.99608"/>
<path d="M606.949 70.6371H69.8386V607.748H606.949V70.6371Z" fill="#784421" fill-opacity="0.99608"/>
<path d="M571.923 105.665H104.865V572.724H571.923V105.665Z" fill="white" fill-opacity="0.99608"/>
<path d="M659.454 660.369V17.7235H16.8083L28.1094 29.0244H648.158V649.073L659.459 660.374L659.454 660.369Z" fill="#2B1100" fill-opacity="0.99608"/>
<path d="M16.8083 17.7283V660.374H659.454L648.153 649.073H28.1039V29.0241L16.8031 17.7233L16.8083 17.7283Z" fill="#D38D5F" fill-opacity="0.99608"/>
<path d="M629.724 630.137V48.041H47.6283L57.8645 58.2771H619.493V619.905L629.729 630.141L629.724 630.137Z" fill="#2B1100" fill-opacity="0.99608"/>
<path d="M47.7732 47.9995V630.095H629.869L619.633 619.859H58.0046V58.231L47.7687 47.9949L47.7732 47.9995Z" fill="#D38D5F" fill-opacity="0.99608"/>
<path d="M606.874 607.31V70.9069H70.4706L79.9033 80.3395H597.446V597.882L606.879 607.315L606.874 607.31Z" fill="#2B1100" fill-opacity="0.99608"/>
<path d="M70.6042 70.8688V607.272H607.008L597.575 597.84H80.0325V80.2972L70.6 70.8646L70.6042 70.8688Z" fill="#D38D5F" fill-opacity="0.99608"/>
<path d="M572.602 573.025V105.166H104.743L112.97 113.393H564.378V564.801L572.606 573.029L572.602 573.025Z" fill="#2B1100" fill-opacity="0.99608"/>
<path d="M104.859 105.133V572.992H572.718L564.491 564.764H113.083V113.356L104.856 105.129L104.859 105.133Z" fill="#D38D5F" fill-opacity="0.99608"/>
<defs>
<filter id="filter0_f_37_93" x="2.65289" y="3.45904" width="689.761" height="689.761" filterUnits="userSpaceOnUse" color-interpolation-filters="sRGB">
<feFlood flood-opacity="0" result="BackgroundImageFix"/>
<feBlend mode="normal" in="SourceGraphic" in2="BackgroundImageFix" result="shape"/>
<feGaussianBlur stdDeviation="6.6322" result="effect1_foregroundBlur_37_93"/>
</filter>
</defs>
</svg>
