<svg width="307" height="289" viewBox="0 0 307 289" fill="none" xmlns="http://www.w3.org/2000/svg">
<g clip-path="url(#clip0_37_113)">
<g filter="url(#filter0_f_37_113)">
<path d="M89.7646 8.32281C61.6913 9.81047 32.6225 23.7879 15.6454 52.9236C1.28775 78.4021 1.40879 114.114 12.4122 141.977C25.9738 179.018 50.9097 206.712 76.2276 230.759C101.595 254.321 129.145 274.068 157.738 290.263C164.22 290.414 168.892 283.881 174.635 281.129C214.97 253.388 254.03 220.033 282.646 173.843C297.562 149.107 308.411 117.734 304.616 85.6114C301.373 58.9553 286.94 35.6633 268.217 23.4632C241.81 4.96654 209.11 1.23156 180.802 13.4779C169.654 18.854 159.253 28.08 153.683 41.694C144.18 21.326 125.154 11.7615 107.409 9.22103C101.587 8.26937 95.6402 8.02771 89.7646 8.32281Z" fill="#808080"/>
</g>
<path d="M86.771 2.90106C58.6978 4.38871 29.6289 18.3661 12.6519 47.5019C-1.7058 72.9804 -1.58476 108.693 9.41869 136.555C22.9803 173.596 47.9161 201.29 73.2341 225.337C98.6013 248.899 126.151 268.647 154.745 284.841C161.227 284.993 165.899 278.459 171.641 275.708C211.976 247.967 251.036 214.612 279.652 168.421C294.569 143.685 305.418 112.312 301.622 80.1897C298.38 53.5335 283.947 30.2415 265.223 18.0414C238.817 -0.455217 206.117 -4.19019 177.809 8.0562C166.66 13.4322 156.259 22.6582 150.689 36.2722C141.186 15.9042 122.16 6.33978 104.416 3.79927C98.5931 2.84762 92.6467 2.60596 86.771 2.90106Z" fill="#800000"/>
<path d="M86.9833 7.36669C62.3863 8.83563 37.1737 19.611 20.3118 42.7914C7.02352 60.7089 2.2389 87.2381 6.51256 111.435C12.0857 144.69 30.1327 172.184 49.3806 194.871C80.1475 230.119 116.139 257.17 153.458 279.325C156.797 282.491 160.02 277.524 163.198 276.217C199.369 252.268 234.111 223.698 262.663 186.586C280.299 163.028 296.225 134.31 298.577 100.865C300.485 77.133 293.38 52.5435 279.394 36.38C260.195 13.8433 233.149 4.62065 207.58 5.49602C189.757 6.46849 170.462 12.3872 158.353 29.8583C154.787 35.1193 152.198 41.4114 150.958 48.2367C146.549 28.3142 131.255 16.1479 116.297 11.2281C106.728 8.00313 96.8289 6.86503 86.9833 7.36669Z" fill="url(#paint0_linear_37_113)"/>
<path d="M81.606 15.1993C50.4409 16.1176 20.6133 40.4855 15.0736 72.7055C10.0685 106.052 23.7138 139.656 43.9832 165.143C61.3846 187.055 81.0884 207.448 103.038 224.588L143.888 52.0884C135.828 51.3671 128.952 43.7266 127.069 35.721C118.258 19.4388 98.2982 14.5492 81.606 15.1993Z" fill="url(#paint1_radial_37_113)"/>
</g>
<defs>
<filter id="filter0_f_37_113" x="-1.42942" y="0.457637" width="312.72" height="295.72" filterUnits="userSpaceOnUse" color-interpolation-filters="sRGB">
<feFlood flood-opacity="0" result="BackgroundImageFix"/>
<feBlend mode="normal" in="SourceGraphic" in2="BackgroundImageFix" result="shape"/>
<feGaussianBlur stdDeviation="2.95597" result="effect1_foregroundBlur_37_113"/>
</filter>
<linearGradient id="paint0_linear_37_113" x1="135.852" y1="-30.8957" x2="235.986" y2="320.214" gradientUnits="userSpaceOnUse">
<stop stop-color="#FF0000"/>
<stop offset="1" stop-color="#800000"/>
</linearGradient>
<radialGradient id="paint1_radial_37_113" cx="0" cy="0" r="1" gradientUnits="userSpaceOnUse" gradientTransform="translate(-48.3567 50.218) rotate(76.9571) scale(199.822 168.657)">
<stop stop-color="white" stop-opacity="0.8"/>
<stop offset="1" stop-color="white" stop-opacity="0"/>
</radialGradient>
<clipPath id="clip0_37_113">
<rect width="306" height="288" fill="white" transform="translate(0.0663452 0.339355)"/>
</clipPath>
</defs>
</svg>
