<svg width="14" height="17" viewBox="0 0 14 17" fill="none" xmlns="http://www.w3.org/2000/svg">
<g clip-path="url(#clip0_37_120)">
<g filter="url(#filter0_f_37_120)">
<path fill-rule="evenodd" clip-rule="evenodd" d="M13.2961 8.54678H1.49088L5.66115 1.05798H9.10137L13.2961 8.54678Z" fill="#FFDD55"/>
</g>
<path d="M1.58552 8.45508H13.2015C13.3075 8.45508 13.3935 8.54104 13.3935 8.64709C13.3935 8.75315 13.3075 8.83911 13.2015 8.83911H1.58552C1.47947 8.83911 1.39349 8.75315 1.39349 8.64709C1.39349 8.54104 1.47947 8.45508 1.58552 8.45508Z" fill="#FFCC00"/>
<path d="M5.6231 0.91748H9.16388C9.24133 0.91748 9.30411 0.980293 9.30411 1.05774C9.30411 1.13519 9.24133 1.198 9.16388 1.198H5.6231C5.54565 1.198 5.48287 1.13519 5.48287 1.05774C5.48287 0.980293 5.54565 0.91748 5.6231 0.91748Z" fill="#FFCC00"/>
<path d="M7.86917 8.80664H6.91782C6.84344 8.80664 6.78314 8.86702 6.78314 8.94141V13.9705C6.78314 14.0448 6.84344 14.1051 6.91782 14.1051H7.86917C7.94355 14.1051 8.00385 14.0448 8.00385 13.9705V8.94141C8.00385 8.86702 7.94355 8.80664 7.86917 8.80664Z" fill="#502D16"/>
<path d="M9.95579 15.4441H4.83124C4.76315 15.4441 4.70795 15.4993 4.70795 15.5674V16.3818C4.70795 16.4499 4.76315 16.5051 4.83124 16.5051H9.95579C10.0239 16.5051 10.0791 16.4499 10.0791 16.3818V15.5674C10.0791 15.4993 10.0239 15.4441 9.95579 15.4441Z" fill="#502D16"/>
<path d="M8.34935 13.941H6.43764C6.31383 13.941 6.21347 14.0415 6.21347 14.1653V15.3086C6.21347 15.4324 6.31383 15.5327 6.43764 15.5327H8.34935C8.47315 15.5327 8.57351 15.4324 8.57351 15.3086V14.1653C8.57351 14.0415 8.47315 13.941 8.34935 13.941Z" fill="#502D16"/>
<path d="M10.7077 16.24H4.07926C3.96578 16.24 3.87378 16.3319 3.87378 16.4454V16.6976C3.87378 16.8111 3.96578 16.9032 4.07926 16.9032H10.7077C10.8212 16.9032 10.9132 16.8111 10.9132 16.6976V16.4454C10.9132 16.3319 10.8212 16.24 10.7077 16.24Z" fill="#502D16"/>
<g opacity="0.815" filter="url(#filter1_f_37_120)">
<path d="M7.3935 7.87307C8.31516 7.87307 9.06231 6.8513 9.06231 5.59089C9.06231 4.33048 8.31516 3.30872 7.3935 3.30872C6.47185 3.30872 5.7247 4.33048 5.7247 5.59089C5.7247 6.8513 6.47185 7.87307 7.3935 7.87307Z" fill="#FFF6D5"/>
</g>
</g>
<defs>
<filter id="filter0_f_37_120" x="1.4069" y="0.974007" width="11.9732" height="7.65675" filterUnits="userSpaceOnUse" color-interpolation-filters="sRGB">
<feFlood flood-opacity="0" result="BackgroundImageFix"/>
<feBlend mode="normal" in="SourceGraphic" in2="BackgroundImageFix" result="shape"/>
<feGaussianBlur stdDeviation="0.0419884" result="effect1_foregroundBlur_37_120"/>
</filter>
<filter id="filter1_f_37_120" x="4.2985" y="1.88252" width="6.19001" height="7.41676" filterUnits="userSpaceOnUse" color-interpolation-filters="sRGB">
<feFlood flood-opacity="0" result="BackgroundImageFix"/>
<feBlend mode="normal" in="SourceGraphic" in2="BackgroundImageFix" result="shape"/>
<feGaussianBlur stdDeviation="0.713099" result="effect1_foregroundBlur_37_120"/>
</filter>
<clipPath id="clip0_37_120">
<rect width="13" height="16" fill="white" transform="translate(0.895996 0.903076)"/>
</clipPath>
</defs>
</svg>
