<svg width="13" height="17" viewBox="0 0 13 17" fill="none" xmlns="http://www.w3.org/2000/svg">
<g clip-path="url(#clip0_37_2)">
<g filter="url(#filter0_f_37_2)">
<path d="M11.6504 1.73248H2.35773C1.98667 1.73248 1.68586 2.29328 1.68586 2.98505V3.90345C1.68586 4.59523 1.98667 5.15602 2.35773 5.15602H11.6504C12.0215 5.15602 12.3223 4.59523 12.3223 3.90345V2.98505C12.3223 2.29328 12.0215 1.73248 11.6504 1.73248Z" fill="#B3B3B3"/>
</g>
<g filter="url(#filter1_f_37_2)">
<path d="M6.89863 8.51288H8.19765C8.40938 11.1198 8.35707 13.6265 8.20059 16.2336C7.74735 16.4474 7.33793 16.3729 6.90745 16.2473C6.75532 13.6404 6.70497 11.12 6.89863 8.5129L6.89863 8.51288Z" fill="#666666"/>
</g>
<g filter="url(#filter2_f_37_2)">
<path d="M2.22137 3.34869C1.8274 3.34869 1.53646 3.77124 1.53646 4.24831V5.95121C1.53646 6.4283 1.8274 6.85033 2.22137 6.85033H6.37999C6.69803 6.85033 6.87975 6.92726 6.97999 7.03487C7.08022 7.14248 7.13128 7.30588 7.13128 7.58046L7.13214 8.56935L7.50455 8.56885L7.5037 7.58046V7.57996C7.50356 7.23741 7.42931 6.92764 7.23258 6.71645C7.03575 6.50515 6.74915 6.41708 6.38 6.41708H2.22138C2.06246 6.41708 1.90889 6.23057 1.90889 5.95122V4.24833C1.90889 3.96899 2.06247 3.78198 2.22138 3.78198H8.05807V3.34871H2.22138L2.22137 3.34869Z" fill="#CCCCCC"/>
</g>
<path d="M7.7841 7.90918H6.64437C6.4658 7.90918 6.32104 8.05391 6.32104 8.23248V16.6809C6.32104 16.8595 6.4658 17.0043 6.64437 17.0043H7.7841C7.96267 17.0043 8.10743 16.8595 8.10743 16.6809V8.23248C8.10743 8.05391 7.96267 7.90918 7.7841 7.90918Z" fill="url(#paint0_linear_37_2)"/>
<g filter="url(#filter3_f_37_2)">
<path d="M7.9389 8.20362C7.9389 8.23323 7.64917 8.14419 7.25063 8.14419C6.60866 8.14419 6.56572 8.40825 6.44231 8.4055C6.39452 8.40444 6.42527 8.0087 7.2473 8.041C7.64562 8.05665 7.9389 8.08922 7.9389 8.20362Z" fill="white"/>
</g>
<path d="M1.64779 2.68878C1.21855 2.68878 0.901558 3.11129 0.901558 3.58832V5.29132C0.901558 5.76837 1.21855 6.19049 1.64779 6.19049H6.17874C6.52527 6.19049 6.72326 6.26746 6.83246 6.375C6.94166 6.4826 6.9973 6.64601 6.9973 6.92059L6.99824 7.90955L7.40399 7.909L7.40305 6.92059C7.40298 6.57803 7.322 6.26782 7.10766 6.05664C6.89321 5.84534 6.58094 5.75726 6.17875 5.75726H1.6478C1.47466 5.75726 1.30732 5.57072 1.30732 5.29138V3.58838C1.30732 3.30902 1.47466 3.12201 1.6478 3.12201H12.4432V2.68878H1.64779Z" fill="black"/>
<g filter="url(#filter4_f_37_2)">
<path d="M12.3531 2.7466C8.78547 2.75041 5.21721 2.74389 1.64941 2.75011C1.29822 2.78659 1.05239 3.17257 1.0772 3.53591C1.07124 4.13903 1.06947 4.74302 1.08069 5.34567C1.11815 5.68887 1.39622 6.01831 1.73488 5.99326C3.16682 5.99651 4.59907 5.98384 6.03109 5.99763C6.31647 6.00328 6.6268 5.96837 6.8783 6.143C7.06358 6.25238 7.14458 6.47939 7.16191 6.69398C7.17965 7.07336 7.16862 7.56565 7.17839 7.91342L7.33947 7.9142L7.32756 6.7238C7.32638 6.60614 7.29866 6.49076 7.26527 6.37717C7.15619 6.07594 6.87707 5.87771 6.5815 5.84762C6.14669 5.77439 5.70348 5.84097 5.26513 5.81557C4.04661 5.81025 2.82683 5.83 1.60911 5.80399C1.33713 5.73008 1.20527 5.39793 1.23925 5.11849C1.25126 4.51978 1.21255 3.91789 1.26159 3.32124C1.32019 3.0698 1.56442 2.87469 1.81011 2.92408C5.32998 2.92307 8.8536 2.92608 12.3711 2.92257C12.3622 2.86849 12.4003 2.79088 12.3687 2.74707C12.3638 2.74534 12.3583 2.74588 12.3532 2.74657L12.3531 2.7466Z" fill="white"/>
</g>
<path d="M12.0688 0.743835H1.86332C1.45582 0.743835 1.12548 1.41489 1.12548 2.24268V3.34161C1.12548 4.1694 1.45582 4.84045 1.86332 4.84045H12.0688C12.4763 4.84045 12.8066 4.1694 12.8066 3.34161V2.24268C12.8066 1.41489 12.4763 0.743835 12.0688 0.743835Z" fill="url(#paint1_linear_37_2)"/>
<path d="M6.31113 8.91425H8.10441C8.3967 11.3921 8.3245 13.7746 8.10851 16.2524C7.48281 16.4556 6.91762 16.3848 6.32332 16.2658C6.1133 13.7879 6.04377 11.392 6.31113 8.91425Z" fill="url(#paint2_linear_37_2)"/>
<g filter="url(#filter5_f_37_2)">
<path d="M7.20557 8.99866H7.31313C7.18561 9.14228 7.21539 9.51731 7.16714 9.8602C7.14652 9.57272 7.10726 9.27664 7.20557 8.99866Z" fill="#FFCC00"/>
</g>
<g opacity="0.81667" filter="url(#filter6_f_37_2)">
<path d="M6.52075 8.92914H6.70271C6.65244 9.35435 6.56975 10.4646 6.45575 11.4798C6.42703 10.6296 6.46334 9.7793 6.52075 8.92914Z" fill="#C87137"/>
</g>
<g filter="url(#filter7_f_37_2)">
<path d="M7.13119 16.3759H7.31315C7.09743 15.7502 7.14779 14.1165 7.06619 12.6227C7.0313 13.8751 6.96488 15.1648 7.13119 16.3759Z" fill="#C87137"/>
</g>
<g opacity="0.55833" filter="url(#filter8_f_37_2)">
<path d="M7.82278 9.00281H7.64082C7.88101 9.62641 8.00983 12.5421 7.87153 14.8917C8.16841 12.6799 8.06708 10.2947 7.82278 9.00281Z" fill="#C87137"/>
</g>
<g opacity="0.52083" filter="url(#filter9_f_37_2)">
<path d="M7.21279 16.3759H7.31314C7.19417 15.7618 7.22195 14.1582 7.17694 12.6921C7.1577 13.9214 7.12107 15.1873 7.21279 16.3759Z" fill="#FFCC00"/>
</g>
<g filter="url(#filter10_f_37_2)">
<path d="M7.70481 9.00281H7.62457C7.73049 9.47205 7.88481 11.614 7.82381 13.382C7.95473 11.7178 7.81255 9.97493 7.70481 9.00281Z" fill="#FFCC00"/>
</g>
<g filter="url(#filter11_f_37_2)">
<path d="M6.4239 8.89269C6.4239 8.86308 6.81137 8.93911 7.19904 8.93911C7.58785 8.93911 7.94182 8.84143 8.0544 8.88604C8.10088 8.90446 8.00623 9.03554 7.20635 9.01194C6.82295 9.00062 6.4239 9.00709 6.4239 8.89269Z" fill="black"/>
</g>
<g filter="url(#filter12_f_37_2)">
<path d="M6.52783 14.2892L6.69993 14.2999C6.52282 13.6972 6.6408 12.1597 6.62791 10.7465C6.541 11.9254 6.42266 13.1376 6.52783 14.2892Z" fill="#FFCC00"/>
</g>
</g>
<defs>
<filter id="filter0_f_37_2" x="1.16992" y="1.21654" width="11.6683" height="4.4554" filterUnits="userSpaceOnUse" color-interpolation-filters="sRGB">
<feFlood flood-opacity="0" result="BackgroundImageFix"/>
<feBlend mode="normal" in="SourceGraphic" in2="BackgroundImageFix" result="shape"/>
<feGaussianBlur stdDeviation="0.25797" result="effect1_foregroundBlur_37_2"/>
</filter>
<filter id="filter1_f_37_2" x="6.14635" y="7.8868" width="2.81754" height="9.10799" filterUnits="userSpaceOnUse" color-interpolation-filters="sRGB">
<feFlood flood-opacity="0" result="BackgroundImageFix"/>
<feBlend mode="normal" in="SourceGraphic" in2="BackgroundImageFix" result="shape"/>
<feGaussianBlur stdDeviation="0.313038" result="effect1_foregroundBlur_37_2"/>
</filter>
<filter id="filter2_f_37_2" x="1.1698" y="2.98203" width="7.25493" height="5.95397" filterUnits="userSpaceOnUse" color-interpolation-filters="sRGB">
<feFlood flood-opacity="0" result="BackgroundImageFix"/>
<feBlend mode="normal" in="SourceGraphic" in2="BackgroundImageFix" result="shape"/>
<feGaussianBlur stdDeviation="0.183332" result="effect1_foregroundBlur_37_2"/>
</filter>
<filter id="filter3_f_37_2" x="6.30877" y="7.91964" width="1.74961" height="0.605355" filterUnits="userSpaceOnUse" color-interpolation-filters="sRGB">
<feFlood flood-opacity="0" result="BackgroundImageFix"/>
<feBlend mode="normal" in="SourceGraphic" in2="BackgroundImageFix" result="shape"/>
<feGaussianBlur stdDeviation="0.0597402" result="effect1_foregroundBlur_37_2"/>
</filter>
<filter id="filter4_f_37_2" x="0.971081" y="2.6445" width="11.5118" height="5.37112" filterUnits="userSpaceOnUse" color-interpolation-filters="sRGB">
<feFlood flood-opacity="0" result="BackgroundImageFix"/>
<feBlend mode="normal" in="SourceGraphic" in2="BackgroundImageFix" result="shape"/>
<feGaussianBlur stdDeviation="0.0507028" result="effect1_foregroundBlur_37_2"/>
</filter>
<filter id="filter5_f_37_2" x="7.05268" y="8.90959" width="0.349518" height="1.03968" filterUnits="userSpaceOnUse" color-interpolation-filters="sRGB">
<feFlood flood-opacity="0" result="BackgroundImageFix"/>
<feBlend mode="normal" in="SourceGraphic" in2="BackgroundImageFix" result="shape"/>
<feGaussianBlur stdDeviation="0.0445347" result="effect1_foregroundBlur_37_2"/>
</filter>
<filter id="filter6_f_37_2" x="6.37847" y="8.86191" width="0.391461" height="2.68512" filterUnits="userSpaceOnUse" color-interpolation-filters="sRGB">
<feFlood flood-opacity="0" result="BackgroundImageFix"/>
<feBlend mode="normal" in="SourceGraphic" in2="BackgroundImageFix" result="shape"/>
<feGaussianBlur stdDeviation="0.0336143" result="effect1_foregroundBlur_37_2"/>
</filter>
<filter id="filter7_f_37_2" x="6.99101" y="12.5905" width="0.354363" height="3.81766" filterUnits="userSpaceOnUse" color-interpolation-filters="sRGB">
<feFlood flood-opacity="0" result="BackgroundImageFix"/>
<feBlend mode="normal" in="SourceGraphic" in2="BackgroundImageFix" result="shape"/>
<feGaussianBlur stdDeviation="0.0161134" result="effect1_foregroundBlur_37_2"/>
</filter>
<filter id="filter8_f_37_2" x="7.55295" y="8.91494" width="0.58884" height="6.06462" filterUnits="userSpaceOnUse" color-interpolation-filters="sRGB">
<feFlood flood-opacity="0" result="BackgroundImageFix"/>
<feBlend mode="normal" in="SourceGraphic" in2="BackgroundImageFix" result="shape"/>
<feGaussianBlur stdDeviation="0.0439348" result="effect1_foregroundBlur_37_2"/>
</filter>
<filter id="filter9_f_37_2" x="7.12102" y="12.6599" width="0.224343" height="3.74817" filterUnits="userSpaceOnUse" color-interpolation-filters="sRGB">
<feFlood flood-opacity="0" result="BackgroundImageFix"/>
<feBlend mode="normal" in="SourceGraphic" in2="BackgroundImageFix" result="shape"/>
<feGaussianBlur stdDeviation="0.0161134" result="effect1_foregroundBlur_37_2"/>
</filter>
<filter id="filter10_f_37_2" x="7.54162" y="8.91985" width="0.417658" height="4.54509" filterUnits="userSpaceOnUse" color-interpolation-filters="sRGB">
<feFlood flood-opacity="0" result="BackgroundImageFix"/>
<feBlend mode="normal" in="SourceGraphic" in2="BackgroundImageFix" result="shape"/>
<feGaussianBlur stdDeviation="0.0414776" result="effect1_foregroundBlur_37_2"/>
</filter>
<filter id="filter11_f_37_2" x="6.30606" y="8.75652" width="1.87592" height="0.376093" filterUnits="userSpaceOnUse" color-interpolation-filters="sRGB">
<feFlood flood-opacity="0" result="BackgroundImageFix"/>
<feBlend mode="normal" in="SourceGraphic" in2="BackgroundImageFix" result="shape"/>
<feGaussianBlur stdDeviation="0.0589203" result="effect1_foregroundBlur_37_2"/>
</filter>
<filter id="filter12_f_37_2" x="6.27294" y="10.533" width="0.640515" height="3.98036" filterUnits="userSpaceOnUse" color-interpolation-filters="sRGB">
<feFlood flood-opacity="0" result="BackgroundImageFix"/>
<feBlend mode="normal" in="SourceGraphic" in2="BackgroundImageFix" result="shape"/>
<feGaussianBlur stdDeviation="0.106761" result="effect1_foregroundBlur_37_2"/>
</filter>
<linearGradient id="paint0_linear_37_2" x1="6.31612" y1="12.4562" x2="8.09965" y2="12.4562" gradientUnits="userSpaceOnUse">
<stop stop-color="#2C2F33"/>
<stop offset="0.024" stop-color="#959799"/>
<stop offset="0.048" stop-color="white"/>
<stop offset="0.11406" stop-color="#2D2D2D"/>
<stop offset="0.21069" stop-color="#ADADAE"/>
<stop offset="0.28078" stop-color="#898989"/>
<stop offset="0.40167" stop-color="white"/>
<stop offset="0.64231" stop-color="white"/>
<stop offset="0.86118"/>
<stop offset="0.94329" stop-color="white"/>
<stop offset="1"/>
</linearGradient>
<linearGradient id="paint1_linear_37_2" x1="8.00717" y1="0.760098" x2="8.00717" y2="4.79898" gradientUnits="userSpaceOnUse">
<stop stop-color="white"/>
<stop offset="0.15" stop-color="#F8F8D5"/>
<stop offset="0.57519" stop-color="#A29E89"/>
<stop offset="0.80602" stop-color="#BFB69A"/>
<stop offset="0.91598" stop-color="#EEEEBE"/>
<stop offset="1" stop-color="white"/>
</linearGradient>
<linearGradient id="paint2_linear_37_2" x1="6.13687" y1="12.6474" x2="8.29787" y2="12.6474" gradientUnits="userSpaceOnUse">
<stop stop-color="#FFBD55"/>
<stop offset="0.3" stop-color="#CD7B44"/>
<stop offset="0.54966" stop-color="#D19829"/>
<stop offset="0.79931"/>
<stop offset="1" stop-color="#FFC155"/>
</linearGradient>
<clipPath id="clip0_37_2">
<rect width="12" height="16" fill="white" transform="translate(0.895996 0.903076)"/>
</clipPath>
</defs>
</svg>
