<?xml version="1.0" encoding="UTF-8"?>
<!--Generator: Apple Native CoreSVG 175.5-->
<!DOCTYPE svg
PUBLIC "-//W3C//DTD SVG 1.1//EN"
       "http://www.w3.org/Graphics/SVG/1.1/DTD/svg11.dtd">
<svg version="1.1" xmlns="http://www.w3.org/2000/svg" xmlns:xlink="http://www.w3.org/1999/xlink" width="24.9023" height="24.9146">
 <g>
  <rect height="24.9146" opacity="0" width="24.9023" x="0" y="0"/>
  <path d="M12.4512 24.9023C19.2627 24.9023 24.9023 19.2505 24.9023 12.4512C24.9023 5.63965 19.2505 0 12.439 0C5.63965 0 0 5.63965 0 12.4512C0 19.2505 5.65186 24.9023 12.4512 24.9023ZM12.4512 22.8271C6.68945 22.8271 2.0874 18.2129 2.0874 12.4512C2.0874 6.68945 6.67725 2.0752 12.439 2.0752C18.2007 2.0752 22.8271 6.68945 22.8271 12.4512C22.8271 18.2129 18.2129 22.8271 12.4512 22.8271ZM20.8008 20.4956L20.7642 20.3613C20.166 18.5669 16.9434 16.6016 12.4512 16.6016C7.97119 16.6016 4.74854 18.5669 4.13818 20.3491L4.10156 20.4956C6.29883 22.6685 10.0708 23.938 12.4512 23.938C14.8438 23.938 18.5791 22.6807 20.8008 20.4956ZM12.4512 14.5264C14.8071 14.5508 16.6382 12.5488 16.6382 9.92432C16.6382 7.4585 14.7949 5.41992 12.4512 5.41992C10.1074 5.41992 8.25195 7.4585 8.26416 9.92432C8.27637 12.5488 10.1074 14.502 12.4512 14.5264Z" fill="#000000" fill-opacity="0.85"/>
 </g>
</svg>
