<svg width="105" height="106" viewBox="0 0 105 106" fill="none" xmlns="http://www.w3.org/2000/svg">
<g clip-path="url(#clip0_37_240)">
<path opacity="0.863866" d="M48.9459 58.8578H27.5792C16.5335 58.8578 7.57916 67.5638 7.57916 78.3033C7.57916 89.0427 16.5335 97.7487 27.5792 97.7487H48.9459C59.9916 97.7487 68.9459 89.0427 68.9459 78.3033C68.9459 67.5638 59.9916 58.8578 48.9459 58.8578Z" fill="black" stroke="black" stroke-width="0.549" stroke-linecap="round"/>
<g filter="url(#filter0_f_37_240)">
<path d="M82.4445 3.01398H22.4445C11.3988 3.01398 2.44446 11.9683 2.44446 23.014V83.014C2.44446 94.0597 11.3988 103.014 22.4445 103.014H82.4445C93.4902 103.014 102.444 94.0597 102.444 83.014V23.014C102.444 11.9683 93.4902 3.01398 82.4445 3.01398Z" fill="#2C9E06"/>
<path d="M82.4445 3.01398H22.4445C11.3988 3.01398 2.44446 11.9683 2.44446 23.014V83.014C2.44446 94.0597 11.3988 103.014 22.4445 103.014H82.4445C93.4902 103.014 102.444 94.0597 102.444 83.014V23.014C102.444 11.9683 93.4902 3.01398 82.4445 3.01398Z" stroke="black" stroke-width="2" stroke-linecap="round"/>
</g>
<path fill-rule="evenodd" clip-rule="evenodd" d="M72.1652 82.6976C72.1652 87.534 60.0297 91.4548 45.0598 91.4548C30.0898 91.4548 17.9543 87.534 17.9543 82.6976C17.9543 77.8611 30.0898 73.9404 45.0598 73.9404C60.0297 73.9404 72.1652 77.8611 72.1652 82.6976Z" fill="white" stroke="black" stroke-width="0.467049"/>
<g opacity="0.527881" filter="url(#filter1_f_37_240)">
<path fill-rule="evenodd" clip-rule="evenodd" d="M67.5373 82.8268C67.5373 85.6722 57.1512 87.9788 44.3394 87.9788C31.5275 87.9788 21.1414 85.6722 21.1414 82.8268C21.1414 79.9814 31.5275 77.6747 44.3394 77.6747C57.1512 77.6747 67.5373 79.9814 67.5373 82.8268Z" fill="black"/>
<path fill-rule="evenodd" clip-rule="evenodd" d="M67.5373 82.8268C67.5373 85.6722 57.1512 87.9788 44.3394 87.9788C31.5275 87.9788 21.1414 85.6722 21.1414 82.8268C21.1414 79.9814 31.5275 77.6747 44.3394 77.6747C57.1512 77.6747 67.5373 79.9814 67.5373 82.8268Z" stroke="black" stroke-width="0.956405" stroke-linecap="round"/>
</g>
<path fill-rule="evenodd" clip-rule="evenodd" d="M93.0624 65.337C93.0624 71.0131 88.461 75.6145 82.7849 75.6145C77.1088 75.6145 72.5074 71.0131 72.5074 65.337C72.5074 59.6609 77.1088 55.0595 82.7849 55.0595C88.461 55.0595 93.0624 59.6609 93.0624 65.337Z" fill="white" stroke="#555555" stroke-width="1.51458"/>
<path d="M33.7024 12.3537C32.7034 12.3537 31.925 13.4331 31.925 14.7739V80.761C31.925 82.1017 32.7034 83.1811 33.7024 83.1811C34.7013 83.1811 35.5175 82.1017 35.5175 80.761V36.3662L68.8703 23.3957L35.404 13.9798C35.1597 13.0326 34.4932 12.3537 33.7024 12.3537Z" fill="white" stroke="white" stroke-width="3.2161"/>
<path d="M33.2437 11.9859C32.2448 11.9859 31.4664 13.0653 31.4664 14.4061V80.3932C31.4664 81.734 32.2448 82.8133 33.2437 82.8133C34.2427 82.8133 35.0589 81.734 35.0589 80.3932V35.9984L68.4117 23.0279L34.9454 13.6119C34.7011 12.6648 34.0346 11.9859 33.2437 11.9859Z" fill="white" stroke="white" stroke-width="3.2161"/>
</g>
<defs>
<filter id="filter0_f_37_240" x="0.244458" y="0.813977" width="104.4" height="104.4" filterUnits="userSpaceOnUse" color-interpolation-filters="sRGB">
<feFlood flood-opacity="0" result="BackgroundImageFix"/>
<feBlend mode="normal" in="SourceGraphic" in2="BackgroundImageFix" result="shape"/>
<feGaussianBlur stdDeviation="0.6" result="effect1_foregroundBlur_37_240"/>
</filter>
<filter id="filter1_f_37_240" x="12.6783" y="69.2116" width="63.3222" height="27.2304" filterUnits="userSpaceOnUse" color-interpolation-filters="sRGB">
<feFlood flood-opacity="0" result="BackgroundImageFix"/>
<feBlend mode="normal" in="SourceGraphic" in2="BackgroundImageFix" result="shape"/>
<feGaussianBlur stdDeviation="3.99248" result="effect1_foregroundBlur_37_240"/>
</filter>
<clipPath id="clip0_37_240">
<rect width="104.88" height="104.88" fill="white" transform="translate(0 0.559998)"/>
</clipPath>
</defs>
</svg>
