<svg width="105" height="106" viewBox="0 0 105 106" fill="none" xmlns="http://www.w3.org/2000/svg">
<g clip-path="url(#clip0_37_236)">
<g filter="url(#filter0_f_37_236)">
<path d="M82.4432 2.90399H22.4432C11.3975 2.90399 2.44324 11.8583 2.44324 22.904V82.904C2.44324 93.9497 11.3975 102.904 22.4432 102.904H82.4432C93.4889 102.904 102.443 93.9497 102.443 82.904V22.904C102.443 11.8583 93.4889 2.90399 82.4432 2.90399Z" fill="#A8FA8B"/>
<path d="M82.4432 2.90399H22.4432C11.3975 2.90399 2.44324 11.8583 2.44324 22.904V82.904C2.44324 93.9497 11.3975 102.904 22.4432 102.904H82.4432C93.4889 102.904 102.443 93.9497 102.443 82.904V22.904C102.443 11.8583 93.4889 2.90399 82.4432 2.90399Z" stroke="black" stroke-width="2" stroke-linecap="round"/>
</g>
<path d="M87.1837 18.4507C95.2557 32.5452 58.5921 43.6279 52.7857 48.4504C45.6221 54.4001 62.1215 96.2673 39.7348 95.0521C10.7631 84.8066 29.694 63.2225 28.2417 37.9408C29.4294 25.7224 39.8103 19.8314 47.1629 18.9169C54.8261 17.9638 80.5092 6.79658 87.1837 18.4507Z" fill="#2C9E06" stroke="#037200" stroke-width="1.61988" stroke-linecap="round"/>
</g>
<defs>
<filter id="filter0_f_37_236" x="0.243237" y="0.703992" width="104.4" height="104.4" filterUnits="userSpaceOnUse" color-interpolation-filters="sRGB">
<feFlood flood-opacity="0" result="BackgroundImageFix"/>
<feBlend mode="normal" in="SourceGraphic" in2="BackgroundImageFix" result="shape"/>
<feGaussianBlur stdDeviation="0.6" result="effect1_foregroundBlur_37_236"/>
</filter>
<clipPath id="clip0_37_236">
<rect width="104.88" height="104.88" fill="white" transform="translate(0 0.463013)"/>
</clipPath>
</defs>
</svg>
