<svg width="460" height="460" viewBox="0 0 460 460" fill="none" xmlns="http://www.w3.org/2000/svg">
<g clip-path="url(#clip0_37_27)">
<g filter="url(#filter0_f_37_27)">
<path fill-rule="evenodd" clip-rule="evenodd" d="M215.636 21.2275C213.473 22.9365 211.297 24.6445 209.135 26.3525C196.231 38.5275 176.66 49.7605 177.685 66.6345C177.547 80.6635 185.212 93.7505 190.95 106.911C192.087 105.971 193.223 105.001 194.36 104.011C194.609 104.491 194.845 104.951 195.108 105.451C205.032 97.2005 209.343 91.1205 210.785 85.7905C213.182 92.2505 214.943 98.5205 216.107 104.601C216.246 107.311 216.481 110.111 216.8 113.011C205.989 145.641 179.557 157.471 184.366 192.701C180.36 173.061 177.588 156.011 183.188 141.571C179.986 123.671 176.771 108.371 151.96 95.6605C159.569 117.901 168.357 151.42 142.341 159.79C138.196 165.94 124.53 180.69 121.203 203.07C119.374 207.32 117.835 211.66 116.699 216.04C115.52 221.28 115.188 226.54 115.617 231.76C115.174 239.55 116.366 247.36 119.512 255.07C120.108 256.25 120.718 257.4 121.342 258.54C115.534 256.52 109.727 254.07 103.919 249.88C115.368 274.28 129.658 293.77 148.19 308.38L104.363 326.29L103.919 326.1L96.864 335.951L103.711 339.32L49.5646 350.1C47.8833 350.16 46.2131 350.38 44.5845 350.79C32.3428 353.86 26.9177 366.05 32.4994 378.01C38.0811 389.97 52.571 397.2 64.8182 394.13C66.3152 393.76 67.6874 393.23 68.9764 392.6L69.1011 392.82L138.571 356.57L143.56 359.04L155.467 354.04L147.234 363.51L147.677 363.6L146.54 370.41L109.075 393.51C106.608 394.15 104.363 395.1 102.491 396.48C98.4025 399.5 96.8778 403.78 97.6402 408.32V408.35C97.6818 408.54 97.6956 408.73 97.7372 408.91C98.1392 412.47 100.204 416.26 103.794 419.35C104.266 419.76 104.765 420.15 105.264 420.51C106.151 421.29 107.093 422.03 108.133 422.76C119.762 430.97 136.103 432.53 144.642 426.23C147.15 424.38 148.717 422.07 149.368 419.51L189.689 376.63L202.773 377.57L204.811 378.1L205.018 377.76L206.89 377.88L206.488 375.35L212.905 365.07L214.167 415.201C213.363 416.911 212.988 418.71 213.03 420.57C213.307 430.81 227.182 438.87 244.008 438.57C245.117 438.55 246.212 438.47 247.293 438.38C248.139 438.33 248.957 438.23 249.761 438.13C250.066 438.09 250.37 438.06 250.675 438.01C253.503 437.6 256.137 436.93 258.465 436.07C258.507 436.06 258.562 436.05 258.604 436.04C259.255 435.79 259.893 435.53 260.503 435.26C268.764 431.8 274.155 425.99 273.975 419.48C273.906 416.74 272.852 414.13 271.037 411.82L251.064 359.91L263.497 365.76L318.856 418.79C320.422 420.56 322.446 422.09 324.913 423.26C332.911 427.03 343.195 426 350.985 421.29C354.298 420.18 357.319 418.08 359.44 415.16C361.824 411.89 362.614 408.19 361.949 404.88C362.115 400.89 360.687 397.08 357.874 394.01L358.483 393.701L356.28 392.451C355.046 391.411 353.646 390.49 352.024 389.73C351.359 389.41 350.652 389.13 349.945 388.88L311.787 367.29L322.487 365.1V353.82L322.404 353.85V353.66L320.796 354.04L299.354 345.6C300.809 345.54 302.251 345.45 303.692 345.35L390.238 381.13C391.292 381.93 392.47 382.65 393.786 383.26C395.658 384.13 397.695 384.72 399.76 385.07L401.715 385.88L401.978 385.35C410.835 386.11 420.44 382.58 426.012 375.82C426.608 375.1 427.107 374.38 427.565 373.63C427.731 373.43 427.897 373.23 428.05 373.01C430.697 369.08 431.113 364.54 429.602 360.85C428.369 356.75 425.306 353.12 420.468 350.88C420.191 350.76 419.928 350.66 419.65 350.54L419.734 350.35L418.611 350.16C416.06 349.25 413.33 348.79 410.544 348.73L367.673 341.07L393.786 320.23L383.696 312.26L382.74 313.07L379.843 312.951C391.915 298.431 396.046 279.81 388.506 258.54C378.831 271.38 372.497 278.53 356.529 282.38C361.408 268.39 357.929 253.75 357.222 239.51C357.444 234.72 358.414 230.03 360.05 225.48C359.44 236.56 364.859 247.15 368.269 257.82C369.392 257.05 370.528 256.261 371.651 255.451C372.053 256.461 372.455 257.48 372.912 258.54C389.753 246.83 391.111 240.18 389.933 232.79C390.155 230.68 389.947 228.5 389.199 226.26C389.185 223.4 387.66 220.73 386.773 218.07C388.395 213.11 393.246 206.021 398.111 194.411C396.864 195.461 395.616 196.471 394.355 197.411C396.531 192.901 398.513 188.321 400.107 183.661C397.737 185.221 395.38 186.77 393.01 188.32C388.519 191.75 383.336 195.131 378.457 198.661C384.805 192.601 392.22 187.1 400.329 182.35C400.384 182.3 400.412 182.251 400.453 182.201C400.883 181.951 401.285 181.691 401.715 181.451C401.493 181.461 401.285 181.49 401.063 181.51C403.6 177.82 397.196 176.531 392.567 176.451C377.389 178.001 362.032 181.84 348.781 187.82C356.307 169.23 356.404 149.171 336.875 132.041C330.651 146.981 323.638 159.07 313.783 170.26C310.47 163.29 304.857 156.711 298.578 150.631C303.096 136.281 305.55 122.141 298.453 106.911C300.449 86.7005 254.404 87.3105 254.016 25.5095C233.738 43.9445 221.54 59.4495 217.451 80.7275C214 77.2805 211.242 74.9015 212.988 82.6025C213.085 84.0135 213.21 85.4105 213.376 86.8205C212.642 85.9905 211.893 85.1505 211.131 84.3205C211.519 82.1255 211.436 80.0335 211.089 77.9465C211.089 75.8345 210.715 73.6645 209.87 71.4775C209.897 66.8925 206.1 63.1845 204.894 59.0405C205.684 53.2105 210.41 44.6765 214.458 30.2905C213.889 30.8725 213.321 31.4535 212.725 32.0095C213.889 28.4505 214.929 24.8545 215.636 21.2275ZM329.639 83.0715C328.974 85.3205 328.309 87.5705 327.644 89.8205C325.052 97.8005 326.23 106.601 321.406 114.041C310.124 120.261 305.203 131.831 310.151 141.631C311.316 147.891 313.672 150.201 317.511 147.631C317.692 148.051 317.858 148.451 318.066 148.881C340.534 132.271 344.304 122.401 342.28 113.411C342.183 110.651 341.49 107.871 339.993 105.071C336.528 97.7505 333.493 90.2905 329.639 83.0715Z" fill="url(#paint0_linear_37_27)"/>
</g>
<path fill-rule="evenodd" clip-rule="evenodd" d="M401.729 385.201L294.863 341.021L312.882 330.63L419.747 349.69L401.729 385.201Z" fill="#924B00" stroke="black" stroke-opacity="0.34351" stroke-width="2.23772" stroke-linejoin="bevel"/>
<path d="M388.242 357.651C395.602 348.721 410.045 345.39 420.468 350.22C430.905 355.05 433.4 366.211 426.04 375.151C418.666 384.081 404.237 387.41 393.8 382.58C383.377 377.75 380.882 366.591 388.242 357.651Z" fill="#C15300" stroke="black" stroke-opacity="0.34351" stroke-width="2.23772" stroke-linejoin="bevel"/>
<path d="M408.299 367.6C409.102 367.11 409.532 368.23 409.324 368.67C408.784 369.87 406.746 369.85 405.623 369.22C403.6 368.1 403.725 365.76 405.208 364.39C407.384 362.38 411.348 362.61 413.663 364.36C416.754 366.7 416.365 370.67 413.441 372.95C409.782 375.82 403.725 375.37 400.259 372.46C396.06 368.94 396.725 363.291 401.091 360.121C406.233 356.371 414.425 357.051 419.027 361.121C424.335 365.811 423.379 373.16 417.571 377.22C410.96 381.84 400.62 380.93 394.895 375.71C388.478 369.84 389.698 360.791 396.974 355.841C405.055 350.341 417.53 351.49 424.391 357.88" stroke="black" stroke-opacity="0.34351" stroke-width="2.23772" stroke-linejoin="bevel"/>
<path fill-rule="evenodd" clip-rule="evenodd" d="M341.075 339.01C331.22 345.17 324.747 343.681 307.781 346.061C331.386 354.691 361.63 369.05 386.371 377.97C381.159 370.37 381.894 360.631 386.496 352.561C371.72 351.901 352.856 349.3 341.075 339.01Z" fill="url(#paint1_linear_37_27)"/>
<path d="M406.33 360.021C410.558 353.731 418.846 351.38 424.848 354.78C430.836 358.18 432.277 366.041 428.036 372.331C423.809 378.621 415.52 380.961 409.518 377.571C403.53 374.171 402.103 366.311 406.33 360.021Z" fill="url(#paint2_linear_37_27)"/>
<path fill-rule="evenodd" clip-rule="evenodd" d="M43.9025 350.551L113.552 336.69L168.787 340.16L69.115 392.13L59.5096 376.54L43.9025 350.551Z" fill="#924B00" stroke="black" stroke-opacity="0.34351" stroke-width="2.23772" stroke-linejoin="bevel"/>
<path fill-rule="evenodd" clip-rule="evenodd" d="M120.746 405.13L145.972 422.461L191.601 373.94L178.392 364.41L157.976 362.681L100.343 398.201L120.746 405.13Z" fill="#924B00" stroke="black" stroke-opacity="0.34351" stroke-width="2.23772" stroke-linejoin="bevel"/>
<path fill-rule="evenodd" clip-rule="evenodd" d="M252.838 418.991L272.049 413.79L234.833 316.76L212.004 328.03L214.416 424.19L252.838 418.991Z" fill="#924B00" stroke="black" stroke-opacity="0.34351" stroke-width="2.23772" stroke-linejoin="bevel"/>
<path fill-rule="evenodd" clip-rule="evenodd" d="M333.285 421.591L318.884 418.121L249.234 351.421L269.651 342.75L358.511 393L336.889 404.26L333.285 421.591Z" fill="#924B00" stroke="black" stroke-opacity="0.34351" stroke-width="2.23772" stroke-linejoin="bevel"/>
<g filter="url(#filter1_f_37_27)">
<path fill-rule="evenodd" clip-rule="evenodd" d="M167.013 300.771L104.986 326.091L104.543 325.901L97.4877 335.741L144.184 358.841L156.132 353.841L147.899 363.311L148.301 363.401L146.471 374.401L185.669 376.121L203.563 377.401L205.42 377.871L205.642 377.561L207.5 377.681L207.111 375.121L224.659 346.931L281.058 373.561L323.111 364.901V353.621L323.028 353.651V353.461L321.42 353.841L236.662 320.461V307.711L214.222 311.741L213.266 311.371L195.815 314.901L167.013 300.771Z" fill="black"/>
</g>
<path d="M76.877 366.22C82.4628 378.18 77.0572 390.37 64.8182 393.44C52.5724 396.51 38.1074 389.29 32.5243 377.33C26.9427 365.38 32.3469 353.181 44.5886 350.121C56.8345 347.051 71.2911 354.26 76.877 366.22Z" fill="#C15300" stroke="black" stroke-opacity="0.34351" stroke-width="2.23772" stroke-linejoin="bevel"/>
<path d="M139.056 399.271C150.699 407.481 153.207 419.261 144.669 425.561C136.131 431.851 119.762 430.301 108.119 422.091C96.4759 413.881 93.9671 402.111 102.505 395.811C111.043 389.511 127.413 391.061 139.056 399.271Z" fill="#C15300" stroke="black" stroke-opacity="0.34351" stroke-width="2.23772" stroke-linejoin="bevel"/>
<path d="M243.011 400.791C259.823 400.491 273.698 408.561 273.975 418.801C274.252 429.041 260.821 437.601 244.008 437.901C227.196 438.201 213.321 430.131 213.044 419.891C212.767 409.651 226.184 401.091 243.011 400.791Z" fill="#C15300" stroke="black" stroke-opacity="0.34351" stroke-width="2.23772" stroke-linejoin="bevel"/>
<path d="M319.258 396.75C326.743 387.49 341.421 384.04 352.024 389.04C362.628 394.05 365.164 405.62 357.68 414.88C350.195 424.14 335.516 427.6 324.913 422.59C314.31 417.59 311.787 406.01 319.258 396.75Z" fill="#C15300" stroke="black" stroke-opacity="0.34351" stroke-width="2.23772" stroke-linejoin="bevel"/>
<path fill-rule="evenodd" clip-rule="evenodd" d="M104.044 325.75L166.375 300.301L200.001 316.76L168.884 347.741L143.56 358.35L104.044 325.75Z" fill="#994200" stroke="black" stroke-opacity="0.20229" stroke-width="1.67826"/>
<path fill-rule="evenodd" clip-rule="evenodd" d="M147.275 362.831L187.998 315.901L236.025 307.241V327.16L204.811 377.41L147.275 362.831Z" fill="#994200" stroke="black" stroke-opacity="0.20229" stroke-width="1.67826"/>
<path fill-rule="evenodd" clip-rule="evenodd" d="M103.947 325.431L96.8779 335.26L143.56 358.35L148.772 344.311L103.947 325.431Z" fill="#C15300" stroke="black" stroke-opacity="0.20229" stroke-width="1.67826"/>
<path fill-rule="evenodd" clip-rule="evenodd" d="M204.159 365.701L204.769 376.48L145.861 373.921L147.719 362.681L204.159 365.701Z" fill="#C15300" stroke="black" stroke-opacity="0.20229" stroke-width="1.67826"/>
<path d="M51.3485 370.591C51.5259 371.521 50.1301 371.011 49.7392 370.541C48.6775 369.261 49.5868 367.82 50.7622 367.47C52.8634 366.86 55.3376 368.671 56.1831 370.741C57.4167 373.781 55.4346 376.441 52.5239 376.811C48.6346 377.301 44.4999 374.101 43.2982 370.341C41.786 365.601 44.9213 361.59 49.5868 361.25C55.2405 360.84 61.0759 365.481 62.6144 370.941C64.4301 377.381 60.1195 382.741 53.6979 383.041C46.288 383.381 38.727 377.291 36.8572 370.131C34.7323 362.001 40.242 355.271 48.4128 355.021C57.583 354.741 66.8696 362.291 69.0596 371.141C71.4991 380.971 64.7905 389.061 54.8718 389.261" stroke="black" stroke-opacity="0.34351" stroke-width="2.23772" stroke-linejoin="bevel"/>
<path d="M120.483 410.33C121.342 411.04 119.789 411.16 119.096 410.92C117.239 410.27 116.906 408.71 117.627 407.95C118.93 406.61 122.368 407.14 124.641 408.55C127.981 410.6 128.355 413.61 126.193 415.07C123.31 417.02 117.419 415.97 113.552 413.3C108.687 409.92 108.285 405.33 111.93 403.21C116.352 400.63 124.752 402.21 130.185 406.17C136.589 410.84 137.046 417.04 131.89 419.82C125.957 423.03 115.008 420.92 108.008 415.67C100.066 409.7 99.5668 401.9 106.22 398.46C113.677 394.61 127.177 397.25 135.729 403.8C145.224 411.06 145.75 420.48 137.6 424.57" stroke="black" stroke-opacity="0.34351" stroke-width="2.23772" stroke-linejoin="bevel"/>
<path d="M241.694 420.431C242.816 420.671 241.791 421.531 241.139 421.641C239.365 421.941 238.007 420.671 237.979 419.631C237.938 417.781 240.751 416.611 243.357 416.801C247.183 417.071 249.594 419.641 249.109 422.021C248.472 425.191 243.565 427.071 238.922 426.481C233.086 425.731 229.51 421.741 230.564 418.041C231.839 413.551 238.908 410.951 245.575 411.961C253.434 413.151 258.174 418.591 256.538 423.611C254.64 429.411 245.395 432.751 236.704 431.321C226.821 429.691 220.903 422.781 223.148 416.441C225.657 409.331 237.078 405.251 247.792 407.121C259.699 409.191 266.795 417.551 263.954 425.211" stroke="black" stroke-opacity="0.34351" stroke-width="2.23772" stroke-linejoin="bevel"/>
<path d="M339.134 406.09C339.924 405.84 339.813 406.87 339.481 407.2C338.593 408.11 337.083 407.7 336.473 406.94C335.405 405.59 336.431 403.64 338.081 402.77C340.506 401.49 343.389 402.45 344.443 404.4C345.829 406.99 343.971 410.27 340.88 411.64C336.986 413.35 332.619 411.78 331.164 408.64C329.418 404.83 332.148 400.17 336.681 398.33C342.017 396.16 347.908 398.35 349.751 402.7C351.872 407.72 348.254 413.77 342.28 416.07C335.489 418.7 328.087 415.89 325.856 410.34C323.361 404.1 327.865 396.67 335.281 393.89C343.514 390.81 352.44 394.24 355.06 401" stroke="black" stroke-opacity="0.34351" stroke-width="2.23772" stroke-linejoin="bevel"/>
<path fill-rule="evenodd" clip-rule="evenodd" d="M205.046 364.641L206.89 377.22L146.748 372.861L148.606 361.621L205.046 364.641Z" fill="url(#paint3_linear_37_27)"/>
<path fill-rule="evenodd" clip-rule="evenodd" d="M149.812 361.771L176.022 330.111L186.709 331.03L216.162 343.771L203.619 365.57L149.812 361.771Z" fill="url(#paint4_linear_37_27)"/>
<path fill-rule="evenodd" clip-rule="evenodd" d="M145.501 345.44L142.937 357.03L98.2778 335.051L105.679 325.07L145.501 345.44Z" fill="url(#paint5_linear_37_27)"/>
<path fill-rule="evenodd" clip-rule="evenodd" d="M110.503 344.081C119.526 348.161 128.549 352.241 137.559 356.331C117.544 366.241 99.3035 375.19 77.5007 386.07C81.5064 378.09 81.9361 368.84 76.1285 361.19C90.7099 359.35 100.385 355.251 110.503 344.081Z" fill="url(#paint6_linear_37_27)"/>
<path fill-rule="evenodd" clip-rule="evenodd" d="M154.178 375.141C166.819 375.781 174.996 375.451 188.081 376.401C174.885 390.351 166.916 399.41 150.283 415.35C150.241 406.87 143.574 398.391 134.482 392.641C147.303 387.301 149.978 388.141 154.178 375.141Z" fill="url(#paint7_linear_37_27)"/>
<path fill-rule="evenodd" clip-rule="evenodd" d="M227.029 349.391C237.716 355.021 243.953 356.8 250.19 359.22C256.026 376.22 261.251 387.821 267.71 406.371C258.77 400.871 246.905 397.33 234.944 398.57C237.674 388.07 237.979 360.151 227.029 349.391Z" fill="url(#paint8_linear_37_27)"/>
<path fill-rule="evenodd" clip-rule="evenodd" d="M226.364 348.051C220.459 353.951 217.23 358.88 213.113 363.5C214.028 381.01 214.056 392.08 214.957 411.19C222.33 402.83 231.478 398.341 243.454 397.151C236.801 387.601 219.974 360.571 226.364 348.051Z" fill="url(#paint9_linear_37_27)"/>
<path fill-rule="evenodd" clip-rule="evenodd" d="M280.85 372.641C275.68 370.561 280.226 373.91 267.197 367.57C281.127 381.14 296.998 396.861 314.476 412.331C310.346 402.321 320.27 395.191 329.057 389.201C315.959 384.221 305.37 370.201 280.85 372.641Z" fill="url(#paint10_linear_37_27)"/>
<path d="M55.9613 366.941C59.0106 375.351 56.0583 383.941 49.3691 386.101C42.6842 388.261 34.785 383.181 31.737 374.761C28.6877 366.341 31.64 357.761 38.3236 355.601C45.0086 353.441 52.9078 358.521 55.9613 366.941Z" fill="url(#paint11_linear_37_27)"/>
<path d="M121.661 402.621C128.369 408.401 129.825 416.691 124.89 421.131C119.97 425.561 110.531 424.471 103.808 418.691C97.0996 412.911 95.6442 404.621 100.565 400.181C105.499 395.751 114.938 396.841 121.661 402.621Z" fill="url(#paint12_linear_37_27)"/>
<path d="M243.925 411.68C257.689 411.46 269.041 417.14 269.263 424.35C269.498 431.56 258.507 437.59 244.743 437.8C230.979 438.01 219.628 432.33 219.392 425.12C219.17 417.91 230.162 411.89 243.925 411.68Z" fill="url(#paint13_linear_37_27)"/>
<path d="M335.114 401.741C339.855 395.221 349.155 392.791 355.878 396.311C362.6 399.831 364.208 407.981 359.468 414.501C354.727 421.021 345.413 423.451 338.69 419.931C331.982 416.401 330.374 408.261 335.114 401.741Z" fill="url(#paint14_linear_37_27)"/>
<path fill-rule="evenodd" clip-rule="evenodd" d="M103.947 249.19C130.753 306.37 173.181 336.691 249.234 340.161C332.883 359.501 410.544 319.941 388.519 257.861C378.512 271.141 372.108 278.361 354.907 282.111C361.713 247.751 318.08 241.97 339.286 205.01C354.103 182.2 362.905 154.19 336.889 131.37C326.091 157.36 312.882 174.691 286.464 193.751C289.263 161.981 312.48 136.281 298.467 106.251C300.463 86.0405 254.432 86.6105 254.044 24.8155C224.825 51.3835 212.406 71.8855 216.814 112.311C206.003 144.951 179.584 156.781 184.394 192.021C180.388 172.381 177.588 155.34 183.188 140.9C179.986 123 176.784 107.691 151.974 94.9905C159.583 117.221 168.385 150.72 142.368 159.09C135.161 169.78 99.1371 206.451 138.765 263.921C127.163 259.011 115.548 257.57 103.947 249.19Z" fill="url(#paint15_linear_37_27)" stroke="#FFFF00" stroke-opacity="0.50382" stroke-width="2.53864"/>
<path fill-rule="evenodd" clip-rule="evenodd" d="M245.325 37.2575C224.548 56.9425 215.733 82.0815 218.38 106.59C220.362 118.58 211.533 129.741 205.24 140.451C193.681 156.411 183.216 173.841 186.376 192.281C185.475 202.911 178.933 192.2 179.612 186.85C176.479 171.82 175.135 156.221 179.418 141.331C177.256 126.841 172.169 111.131 155.578 101.601C160.512 118.801 166.916 138.191 155.023 154.631C150.754 160.141 141.218 161.64 139.222 168.26C119.193 193.56 117.697 225.101 132.888 251.891C136.048 257.991 140.178 263.81 143.755 269.79C132.611 265.19 120.358 262.07 109.588 257.04C124.516 288.58 152.916 319.621 197.742 331.901C215.359 337.311 234.583 338.321 253.212 340.451C294.032 349.651 344.692 343.61 371.623 317.98C387.438 303.15 391.832 283.14 386.454 265.07C379.316 275.47 366.966 283.9 351.013 286.57C354.686 273.22 349.1 259.851 339.536 248.431C329.224 236.251 326.784 220.841 335.031 207.671C347.52 187.911 356.973 163.991 342.419 143.421C337.914 133.921 334.74 139.75 332.453 146.48C322.945 167.601 303.72 185.57 281.973 200.98C283.484 179.431 293.907 159.041 298.328 137.861C300.865 127.071 297.954 116.241 294.822 105.791C292.687 94.0505 275.735 88.0205 268.57 77.9695C255.818 64.5955 251.576 47.9735 250.828 32.0075C248.998 33.7575 247.169 35.5075 245.325 37.2575Z" fill="url(#paint16_linear_37_27)"/>
<path fill-rule="evenodd" clip-rule="evenodd" d="M240.834 331.491C177.186 282.981 166.375 249.191 208.414 217.141C255.638 156.501 244.036 118.381 209.606 81.9905C242.026 162.561 171.185 214.541 148.37 237.931C134.759 207.611 146.374 194.611 165.183 157.361C128.355 186.241 105.943 221.181 119.554 254.391C144.364 304.351 202.801 315.321 240.834 331.491Z" fill="url(#paint17_linear_37_27)" stroke="#FFFF00" stroke-opacity="0.50382" stroke-width="2.53864"/>
<path fill-rule="evenodd" clip-rule="evenodd" d="M318.066 148.191C309.528 130.291 316.5 126.461 323.97 118.641C331.677 116.471 329.307 108.921 333.52 92.1005C339.882 110.871 356.987 119.411 318.066 148.191Z" fill="#FFD700" stroke="#FFFF00" stroke-opacity="0.50382" stroke-width="2.53864"/>
<path d="M149.493 344.57L167.595 338.63" stroke="black" stroke-opacity="0.17939" stroke-width="1.7049"/>
<path fill-rule="evenodd" clip-rule="evenodd" d="M106.871 325.85L144.267 310.951L174.872 328.641L167.401 337.78L148.218 343.72L106.871 325.85Z" fill="url(#paint18_linear_37_27)"/>
<path fill-rule="evenodd" clip-rule="evenodd" d="M327.657 89.1605C325.052 97.1405 326.23 105.931 321.42 113.381C310.124 119.601 305.203 131.15 310.151 140.96C311.69 149.18 315.252 150.601 321.573 143.09C335.059 133.08 347.686 118.731 340.007 104.381C336.542 97.0605 333.507 89.6305 329.639 82.4075C328.974 84.6605 328.309 86.9105 327.657 89.1605Z" fill="url(#paint19_linear_37_27)"/>
<path fill-rule="evenodd" clip-rule="evenodd" d="M191.601 325.431L280.462 368.741L322.487 354.021L216.814 312.431L186.792 318.5L191.601 325.431Z" fill="#994200" stroke="black" stroke-opacity="0.20229" stroke-width="1.67826"/>
<path d="M203.827 365.16L218.089 344.171" stroke="black" stroke-opacity="0.17939" stroke-width="1.7049"/>
<path fill-rule="evenodd" clip-rule="evenodd" d="M187.416 323.891L276.276 367.201L318.301 352.48L212.628 310.891L182.606 316.961L187.416 323.891Z" fill="url(#paint20_linear_37_27)"/>
<path fill-rule="evenodd" clip-rule="evenodd" d="M186.792 318.5V328.891L280.462 373.081L322.487 364.41V353.151L284.052 361.811L186.792 318.5Z" fill="#C15300" stroke="black" stroke-opacity="0.20229" stroke-width="1.67826"/>
<path fill-rule="evenodd" clip-rule="evenodd" d="M186.709 318.35V328.741L280.365 372.921L322.39 364.26V353L283.969 361.66L186.709 318.35Z" fill="url(#paint21_linear_37_27)"/>
<g filter="url(#filter2_f_37_27)">
<path fill-rule="evenodd" clip-rule="evenodd" d="M306.395 307.94L277.773 330.44L370.029 339.07L371.235 339.97L398.139 318.5L388.048 310.54L387.092 311.35L306.395 307.94Z" fill="black"/>
</g>
<path fill-rule="evenodd" clip-rule="evenodd" d="M389.598 310.361L307.834 306.861L279.198 329.361L373.298 338.161L389.598 310.361Z" fill="#994200" stroke="black" stroke-opacity="0.20229" stroke-width="1.67826"/>
<path fill-rule="evenodd" clip-rule="evenodd" d="M363.249 331.761L372.688 338.96L399.577 317.46L389.487 309.46L363.249 331.761Z" fill="#C15300" stroke="black" stroke-opacity="0.20229" stroke-width="1.67826"/>
<path d="M364.344 331.761L300.141 325.46" stroke="black" stroke-opacity="0.17939" stroke-width="1.7049"/>
<path fill-rule="evenodd" clip-rule="evenodd" d="M390.166 310.56L398.261 317.56L372.729 338.261L363.9 331.06L390.166 310.56Z" fill="url(#paint22_linear_37_27)"/>
<path fill-rule="evenodd" clip-rule="evenodd" d="M362.861 331.161L308.735 325.361L341.973 309.161L363.872 309.861L386.59 310.46L362.861 331.161Z" fill="url(#paint23_linear_37_27)"/>
<path fill-rule="evenodd" clip-rule="evenodd" d="M372.912 257.86C394.923 242.55 390.529 235.91 388.519 224.94C382.116 219.74 390.127 212.81 398.125 193.75C377.722 210.79 353.702 213.1 372.912 257.86Z" fill="#FFD700" stroke="#FFFF00" stroke-opacity="0.50382" stroke-width="2.53864"/>
<path fill-rule="evenodd" clip-rule="evenodd" d="M269.651 331.49C294.461 321.39 301.267 289.62 304.469 254.39C310.47 220.31 322.487 186.24 401.729 180.75C369.309 199.52 342.89 222.62 354.907 265.65C351.706 328.32 287.254 326.01 269.651 331.49Z" fill="url(#paint24_linear_37_27)" stroke="#FFFF00" stroke-opacity="0.50382" stroke-width="2.53864"/>
<path fill-rule="evenodd" clip-rule="evenodd" d="M392.594 175.771C358.802 179.231 323.97 193.88 314.06 218.76C298.134 249.86 306.936 285.251 285.23 315.121C276.983 317.701 278.993 328.791 289.18 326.621C318.995 322.721 347.312 307.771 354.866 285.841C362.143 270.601 358.012 254.49 357.236 238.84C358.234 216.15 376.447 195.68 400.356 181.68C404.542 177.33 397.557 175.871 392.594 175.771Z" fill="url(#paint25_linear_37_27)"/>
<path fill-rule="evenodd" clip-rule="evenodd" d="M393.01 187.66C379.399 198.06 359.634 207.79 360.119 223.78C359.107 235.24 364.762 246.16 368.283 257.16C380.106 249.02 393.537 238.42 389.212 225.58C389.171 219.93 383.266 214.98 387.91 209.47C392.359 200.74 397.016 192.06 400.121 183C397.751 184.55 395.38 186.1 393.01 187.66Z" fill="url(#paint26_linear_37_27)"/>
<path fill-rule="evenodd" clip-rule="evenodd" d="M226.419 308.1C223.218 280.38 218.81 260.451 267.253 235.331C349.294 194.041 308.876 170.07 257.647 127.04C272.852 169.78 248.43 203.851 227.625 226.671C214.014 240.821 166.777 269.69 226.419 308.1Z" fill="url(#paint27_linear_37_27)" stroke="#FFFF00" stroke-opacity="0.50382" stroke-width="2.53864"/>
<path fill-rule="evenodd" clip-rule="evenodd" d="M195.122 104.751C217.285 86.3405 211.588 78.7635 207.971 66.0875C200.278 60.2445 208.151 51.9655 214.458 29.6115C194.277 49.9855 168.232 53.3745 195.122 104.751Z" fill="#FFD700" stroke="#FFFF00" stroke-opacity="0.50382" stroke-width="2.53864"/>
<path fill-rule="evenodd" clip-rule="evenodd" d="M209.149 25.6885C196.245 37.8625 176.674 49.0965 177.699 65.9695C177.561 79.9995 185.226 93.0905 190.95 106.251C202.648 96.6205 215.095 84.3805 209.884 70.8055C209.925 65.4335 204.714 61.2635 204.561 56.1895C207.416 44.2145 213.307 32.6465 215.636 20.5635C213.473 22.2715 211.311 23.9805 209.149 25.6885Z" fill="url(#paint28_linear_37_27)"/>
<path fill-rule="evenodd" clip-rule="evenodd" d="M256.4 119.88C265.285 149.01 256.137 179.71 235.706 205.3C223.023 222.9 198.005 236.381 195.621 257.311C191.795 275.561 210.022 290.77 226.904 302.55C233.779 308.79 227.889 294.04 228.817 290.59C226.073 272.64 230.342 252.5 250.412 240.19C272.769 224.5 304.649 213.63 315.349 191.08C322.598 171.17 303.29 153.32 286.464 139.18C276.318 130.3 265.617 121.77 254.972 113.19C255.457 115.42 255.929 117.65 256.4 119.88Z" fill="url(#paint29_linear_37_27)"/>
<path fill-rule="evenodd" clip-rule="evenodd" d="M216.079 94.0305C216.953 107.811 222.386 121.451 219.891 135.361C217.701 167.821 197.936 198.361 170.63 223.771C165.571 228.961 160.179 233.981 154.954 239.091C147.982 222.321 151.128 204.231 160.526 188.321C165.474 179.811 168.953 170.981 170.769 161.841C144.683 179.011 126.262 202.411 119.789 227.471C114.536 250.641 125.833 274.461 147.137 291.871C173.915 314.671 212.434 327.481 249.775 338.931C228.623 317.471 199.169 298.101 192.918 270.971C188.621 255.221 197.215 239.421 211.561 227.641C227.972 211.371 238.187 192.031 244.258 172.491C252.145 147.061 245.824 119.551 226.558 97.5005C221.804 94.9905 213.307 81.8135 216.079 94.0305Z" fill="url(#paint30_linear_37_27)"/>
</g>
<defs>
<filter id="filter0_f_37_27" x="9.47651" y="0.401342" width="441.823" height="459.003" filterUnits="userSpaceOnUse" color-interpolation-filters="sRGB">
<feFlood flood-opacity="0" result="BackgroundImageFix"/>
<feBlend mode="normal" in="SourceGraphic" in2="BackgroundImageFix" result="shape"/>
<feGaussianBlur stdDeviation="10.4131" result="effect1_foregroundBlur_37_27"/>
</filter>
<filter id="filter1_f_37_27" x="80.3376" y="283.62" width="259.924" height="111.4" filterUnits="userSpaceOnUse" color-interpolation-filters="sRGB">
<feFlood flood-opacity="0" result="BackgroundImageFix"/>
<feBlend mode="normal" in="SourceGraphic" in2="BackgroundImageFix" result="shape"/>
<feGaussianBlur stdDeviation="8.57506" result="effect1_foregroundBlur_37_27"/>
</filter>
<filter id="filter2_f_37_27" x="264.909" y="295.076" width="146.094" height="57.7586" filterUnits="userSpaceOnUse" color-interpolation-filters="sRGB">
<feFlood flood-opacity="0" result="BackgroundImageFix"/>
<feBlend mode="normal" in="SourceGraphic" in2="BackgroundImageFix" result="shape"/>
<feGaussianBlur stdDeviation="6.43215" result="effect1_foregroundBlur_37_27"/>
</filter>
<linearGradient id="paint0_linear_37_27" x1="167.484" y1="373.518" x2="177.156" y2="102.394" gradientUnits="userSpaceOnUse">
<stop/>
<stop offset="1" stop-opacity="0"/>
</linearGradient>
<linearGradient id="paint1_linear_37_27" x1="380.787" y1="387.956" x2="387.795" y2="370.381" gradientUnits="userSpaceOnUse">
<stop stop-color="white"/>
<stop offset="1" stop-color="white" stop-opacity="0"/>
</linearGradient>
<linearGradient id="paint2_linear_37_27" x1="428.68" y1="372.687" x2="406.817" y2="357.981" gradientUnits="userSpaceOnUse">
<stop stop-color="white" stop-opacity="0.44928"/>
<stop offset="1" stop-color="white" stop-opacity="0"/>
</linearGradient>
<linearGradient id="paint3_linear_37_27" x1="141.711" y1="384.045" x2="144.012" y2="366.231" gradientUnits="userSpaceOnUse">
<stop stop-color="white"/>
<stop offset="1" stop-color="white" stop-opacity="0"/>
</linearGradient>
<linearGradient id="paint4_linear_37_27" x1="101.962" y1="390.785" x2="132.321" y2="323.351" gradientUnits="userSpaceOnUse">
<stop stop-color="white"/>
<stop offset="1" stop-color="white" stop-opacity="0"/>
</linearGradient>
<linearGradient id="paint5_linear_37_27" x1="87.9163" y1="344.146" x2="95.6654" y2="326.658" gradientUnits="userSpaceOnUse">
<stop stop-color="white"/>
<stop offset="1" stop-color="white" stop-opacity="0"/>
</linearGradient>
<linearGradient id="paint6_linear_37_27" x1="84.5815" y1="395.538" x2="75.7317" y2="378.215" gradientUnits="userSpaceOnUse">
<stop stop-color="white"/>
<stop offset="1" stop-color="white" stop-opacity="0"/>
</linearGradient>
<linearGradient id="paint7_linear_37_27" x1="161.432" y1="422.498" x2="145.759" y2="407.499" gradientUnits="userSpaceOnUse">
<stop stop-color="white"/>
<stop offset="1" stop-color="white" stop-opacity="0"/>
</linearGradient>
<linearGradient id="paint8_linear_37_27" x1="282.492" y1="404.909" x2="259.947" y2="413.145" gradientUnits="userSpaceOnUse">
<stop stop-color="white"/>
<stop offset="1" stop-color="white" stop-opacity="0"/>
</linearGradient>
<linearGradient id="paint9_linear_37_27" x1="200.205" y1="412.743" x2="224.896" y2="411.958" gradientUnits="userSpaceOnUse">
<stop stop-color="white"/>
<stop offset="1" stop-color="white" stop-opacity="0"/>
</linearGradient>
<linearGradient id="paint10_linear_37_27" x1="303.719" y1="419.78" x2="318.58" y2="404.356" gradientUnits="userSpaceOnUse">
<stop stop-color="white"/>
<stop offset="1" stop-color="white" stop-opacity="0"/>
</linearGradient>
<linearGradient id="paint11_linear_37_27" x1="31.1205" y1="374.944" x2="56.2772" y2="365.833" gradientUnits="userSpaceOnUse">
<stop stop-color="white" stop-opacity="0.44928"/>
<stop offset="1" stop-color="white" stop-opacity="0"/>
</linearGradient>
<linearGradient id="paint12_linear_37_27" x1="103.313" y1="419.136" x2="119.713" y2="400.087" gradientUnits="userSpaceOnUse">
<stop stop-color="white" stop-opacity="0.44928"/>
<stop offset="1" stop-color="white" stop-opacity="0"/>
</linearGradient>
<linearGradient id="paint13_linear_37_27" x1="244.74" y1="438.453" x2="244.317" y2="411.005" gradientUnits="userSpaceOnUse">
<stop stop-color="white" stop-opacity="0.44928"/>
<stop offset="1" stop-color="white" stop-opacity="0"/>
</linearGradient>
<linearGradient id="paint14_linear_37_27" x1="360.158" y1="414.874" x2="336.908" y2="397.956" gradientUnits="userSpaceOnUse">
<stop stop-color="white" stop-opacity="0.44928"/>
<stop offset="1" stop-color="white" stop-opacity="0"/>
</linearGradient>
<linearGradient id="paint15_linear_37_27" x1="165.737" y1="317.572" x2="248.269" y2="107.856" gradientUnits="userSpaceOnUse">
<stop stop-color="#DC0000"/>
<stop offset="1" stop-color="#FFB200"/>
</linearGradient>
<linearGradient id="paint16_linear_37_27" x1="-47.8652" y1="38.7975" x2="329.226" y2="303.123" gradientUnits="userSpaceOnUse">
<stop stop-color="white"/>
<stop offset="1" stop-color="white" stop-opacity="0"/>
</linearGradient>
<linearGradient id="paint17_linear_37_27" x1="204.274" y1="308.09" x2="136.777" y2="235.517" gradientUnits="userSpaceOnUse">
<stop stop-color="#DC0000"/>
<stop offset="1" stop-color="#FFB200"/>
</linearGradient>
<linearGradient id="paint18_linear_37_27" x1="73.934" y1="350.896" x2="113.733" y2="301.066" gradientUnits="userSpaceOnUse">
<stop stop-color="white"/>
<stop offset="1" stop-color="white" stop-opacity="0"/>
</linearGradient>
<linearGradient id="paint19_linear_37_27" x1="310.996" y1="117.477" x2="339.632" y2="117.477" gradientUnits="userSpaceOnUse">
<stop stop-color="white" stop-opacity="0.44928"/>
<stop offset="1" stop-color="white" stop-opacity="0"/>
</linearGradient>
<linearGradient id="paint20_linear_37_27" x1="370.383" y1="410.317" x2="341.134" y2="310.664" gradientUnits="userSpaceOnUse">
<stop stop-color="white"/>
<stop offset="1" stop-color="white" stop-opacity="0"/>
</linearGradient>
<linearGradient id="paint21_linear_37_27" x1="177.854" y1="407.472" x2="187.61" y2="342.156" gradientUnits="userSpaceOnUse">
<stop stop-color="#FDFFFF"/>
<stop offset="1" stop-color="#FDFFFF" stop-opacity="0"/>
</linearGradient>
<linearGradient id="paint22_linear_37_27" x1="362.38" y1="357.383" x2="352.522" y2="340.252" gradientUnits="userSpaceOnUse">
<stop stop-color="white"/>
<stop offset="1" stop-color="white" stop-opacity="0"/>
</linearGradient>
<linearGradient id="paint23_linear_37_27" x1="409.142" y1="355.582" x2="356.36" y2="312.451" gradientUnits="userSpaceOnUse">
<stop stop-color="white"/>
<stop offset="1" stop-color="white" stop-opacity="0"/>
</linearGradient>
<linearGradient id="paint24_linear_37_27" x1="298.623" y1="311.444" x2="387.215" y2="210.935" gradientUnits="userSpaceOnUse">
<stop stop-color="#DC0000"/>
<stop offset="1" stop-color="#FFB200"/>
</linearGradient>
<linearGradient id="paint25_linear_37_27" x1="502.369" y1="188.77" x2="287.723" y2="292.254" gradientUnits="userSpaceOnUse">
<stop stop-color="white"/>
<stop offset="1" stop-color="white" stop-opacity="0"/>
</linearGradient>
<linearGradient id="paint26_linear_37_27" x1="362.726" y1="221.116" x2="394.988" y2="221.116" gradientUnits="userSpaceOnUse">
<stop stop-color="white" stop-opacity="0.44928"/>
<stop offset="1" stop-color="white" stop-opacity="0"/>
</linearGradient>
<linearGradient id="paint27_linear_37_27" x1="228.244" y1="359.025" x2="295.663" y2="208.302" gradientUnits="userSpaceOnUse">
<stop stop-color="#DC0000"/>
<stop offset="1" stop-color="#FFB200"/>
</linearGradient>
<linearGradient id="paint28_linear_37_27" x1="180.477" y1="64.4994" x2="211.316" y2="64.4994" gradientUnits="userSpaceOnUse">
<stop stop-color="white" stop-opacity="0.44928"/>
<stop offset="1" stop-color="white" stop-opacity="0"/>
</linearGradient>
<linearGradient id="paint29_linear_37_27" x1="136.227" y1="60.9973" x2="335.197" y2="201.531" gradientUnits="userSpaceOnUse">
<stop stop-color="white"/>
<stop offset="1" stop-color="white" stop-opacity="0"/>
</linearGradient>
<linearGradient id="paint30_linear_37_27" x1="45.0004" y1="120.185" x2="219.979" y2="210.669" gradientUnits="userSpaceOnUse">
<stop stop-color="white"/>
<stop offset="1" stop-color="white" stop-opacity="0"/>
</linearGradient>
<clipPath id="clip0_37_27">
<rect width="459.016" height="459.806" fill="white" transform="translate(0.880005)"/>
</clipPath>
</defs>
</svg>
