<svg width="105" height="106" viewBox="0 0 105 106" fill="none" xmlns="http://www.w3.org/2000/svg">
<g clip-path="url(#clip0_37_255)">
<g filter="url(#filter0_f_37_255)">
<path d="M82.4355 3.01355H22.4355C11.3899 3.01355 2.43555 11.9679 2.43555 23.0136V83.0135C2.43555 94.0592 11.3899 103.014 22.4355 103.014H82.4355C93.4812 103.014 102.436 94.0592 102.436 83.0135V23.0136C102.436 11.9679 93.4812 3.01355 82.4355 3.01355Z" fill="#A8FA8B"/>
<path d="M82.4355 3.01355H22.4355C11.3899 3.01355 2.43555 11.9679 2.43555 23.0136V83.0135C2.43555 94.0592 11.3899 103.014 22.4355 103.014H82.4355C93.4812 103.014 102.436 94.0592 102.436 83.0135V23.0136C102.436 11.9679 93.4812 3.01355 82.4355 3.01355Z" stroke="black" stroke-width="2" stroke-linecap="round"/>
</g>
<path fill-rule="evenodd" clip-rule="evenodd" d="M66.7694 26.8975C66.7694 34.6518 60.4834 40.9378 52.7291 40.9378C44.9748 40.9378 38.6888 34.6518 38.6888 26.8975C38.6888 19.1432 44.9748 12.8572 52.7291 12.8572C60.4834 12.8572 66.7694 19.1432 66.7694 26.8975Z" fill="white" stroke="#555555" stroke-width="2.0691"/>
<path fill-rule="evenodd" clip-rule="evenodd" d="M47.1838 47.9539H58.7299V87.296L52.743 96.4901L47.1838 87.296V47.9539Z" fill="#C5AD09"/>
<path fill-rule="evenodd" clip-rule="evenodd" d="M43.2261 40.041C47.7737 45.2416 46.3597 43.6694 47.1948 48.005H58.7307C59.591 43.9448 58.5036 45.3047 62.673 40.041H43.2261Z" fill="url(#paint0_linear_37_255)"/>
<path d="M43.0057 40.2423C47.5424 45.4305 46.152 43.8827 46.9744 48.1798C46.9761 48.1901 46.9727 48.1959 46.9744 48.2062V87.4969L52.5307 96.7044L58.5103 87.4969V48.2062V48.1798C59.3588 44.1567 58.2936 45.4929 62.4526 40.2423H43.0057Z" stroke="black" stroke-width="0.846667"/>
</g>
<defs>
<filter id="filter0_f_37_255" x="0.235547" y="0.81355" width="104.4" height="104.4" filterUnits="userSpaceOnUse" color-interpolation-filters="sRGB">
<feFlood flood-opacity="0" result="BackgroundImageFix"/>
<feBlend mode="normal" in="SourceGraphic" in2="BackgroundImageFix" result="shape"/>
<feGaussianBlur stdDeviation="0.6" result="effect1_foregroundBlur_37_255"/>
</filter>
<linearGradient id="paint0_linear_37_255" x1="97.6557" y1="121.191" x2="97.7698" y2="130.662" gradientUnits="userSpaceOnUse">
<stop stop-color="#594F03"/>
<stop offset="1" stop-color="#C5AD09"/>
</linearGradient>
<clipPath id="clip0_37_255">
<rect width="104.88" height="104.88" fill="white" transform="translate(0 0.559998)"/>
</clipPath>
</defs>
</svg>
