<svg width="65" height="64" viewBox="0 0 65 64" fill="none" xmlns="http://www.w3.org/2000/svg">
<g opacity="0.5" filter="url(#filter0_f_37_21)">
<path fill-rule="evenodd" clip-rule="evenodd" d="M51.7176 48.4426C51.7176 54.0086 42.934 58.5208 32.0988 58.5208C21.2637 58.5208 12.4801 54.0086 12.4801 48.4426C12.4801 42.8767 21.2637 38.3645 32.0988 38.3645C42.934 38.3645 51.7176 42.8767 51.7176 48.4426Z" fill="url(#paint0_radial_37_21)"/>
</g>
<path fill-rule="evenodd" clip-rule="evenodd" d="M54.8916 9.97769C55.3781 11.1137 56.6649 14.7195 56.6649 16.6212C56.6649 18.6463 54.9558 20.2763 54.326 21.5359C54.168 21.8569 54.4816 23.808 54.326 24.1044C53.4419 25.8826 51.7724 26.747 51.0488 28.5498C50.1572 30.7973 48.947 33.4645 47.3072 35.1192C45.6525 36.7492 44.6201 39.1448 43.7977 41.1947C43.1778 42.7506 42.795 44.9733 42.3925 46.5786C41.896 48.5544 40.518 48.3074 38.883 47.9864C37.1221 47.6159 35.6156 47.5171 33.7362 47.5171C32.116 47.5171 31.1948 49.5917 29.7451 49.2212C28.3646 48.8755 25.8479 47.122 24.6131 46.8009C23.5758 46.5539 21.8964 45.4673 20.869 44.7017C19.9132 43.9854 19.2217 42.1826 18.7624 41.417C17.7597 39.7623 16.5396 37.1444 15.7222 35.1192C15.1492 33.6868 15.0208 31.8345 15.0208 30.2045C15.0208 29.1673 14.0699 27.3644 13.616 26.4506C12.601 24.4254 13.3819 21.6347 13.3819 19.4366C13.3819 16.9916 14.2527 15.7074 14.7861 13.5834C15.2801 11.6077 15.7814 10.2 16.6582 8.44648C17.5226 6.71769 18.0881 4.27266 18.997 6.10024C19.2958 6.69297 19.933 8.27357 20.1676 8.91569C20.874 10.7927 22.5064 12.4474 22.5064 14.5219C22.5064 16.2754 23.1214 18.0783 23.9092 19.6589C25.0107 21.8816 24.25 24.3266 25.3145 26.4506C25.9492 27.7348 26.2505 29.9328 26.2505 31.3406C28.2139 29.4883 29.1944 28.2535 29.5253 26.9198C29.9229 25.3145 29.8266 23.6104 30.2267 22.0051C30.7528 19.9059 30.9627 17.9548 31.8641 16.1519C32.9952 13.9045 32.6939 11.4101 33.299 8.98978C33.8177 6.91524 35.9243 5.80389 37.4654 5.03829C40.5155 3.50707 40.5204 9.38495 40.5204 11.7065C40.5204 13.781 40.9897 16.4236 40.9897 18.4981C40.9897 20.7209 39.8906 21.6594 40.2883 23.6351C40.6365 25.3886 40.8538 27.2903 42.6271 25.5121C44.0373 24.1044 44.7485 22.2027 45.6673 20.3751C46.8256 18.0536 49.2138 14.349 51.1475 12.8919C52.2885 12.0275 53.4839 10.8174 54.8916 9.97769Z" fill="#00B300"/>
<path d="M37.8828 3.2601C37.2209 3.60586 36.4232 4.29737 35.4131 5.18647C33.4027 6.96465 32.5285 8.47117 31.0911 13.0648C28.1398 22.4991 27.6434 25.2157 28.1571 27.4879L28.6214 29.6612L30.3946 25.9567C31.3726 23.9068 32.1679 21.7088 32.1704 21.0913C32.1753 20.4739 32.7507 18.0289 33.4818 15.6827C34.2622 13.1883 34.5635 11.336 34.1782 11.2125C32.4074 10.5951 35.3637 5.65571 37.495 5.65571C40.1277 5.65571 40.7871 20.5233 38.3446 24.5736C37.784 25.4874 36.8504 26.9692 36.2602 27.883C35.6724 28.7968 33.9634 33.0941 32.4791 37.3667C30.4169 43.3186 29.4734 45.2697 28.3127 45.7883C26.7963 46.4552 26.1838 48.1839 27.4631 48.1839C27.8336 48.1839 28.1571 48.6779 28.1571 49.2706C28.1571 49.8387 28.4288 50.0856 28.7745 49.888C29.1203 49.6658 29.5475 49.8139 29.7772 50.1844C30.039 50.6042 30.817 50.4808 31.8616 49.7892C33.1212 48.9742 34.4622 48.8014 37.1098 49.0977C39.0435 49.3447 40.6884 49.8139 40.8143 50.1844C41.1403 51.1723 42.9506 51.0488 43.0519 50.0362C43.0988 49.567 43.1111 47.9123 43.0519 46.3317C42.916 42.5777 44.9461 38.0088 48.4556 34.2054C49.9769 32.5507 52.4145 28.6486 53.8568 25.5615C56.0672 20.8444 56.4821 19.3378 56.4821 15.6086C56.4821 13.1883 56.7982 10.9903 57.1761 10.7433C57.5539 10.521 57.6898 10.0765 57.4848 9.75543C56.8352 8.69345 52.8442 9.82951 50.8487 11.6818C48.5099 13.8304 44.6942 19.4119 43.284 22.7954C42.7135 24.1538 42.1035 25.2651 41.896 25.2651C41.6886 25.2651 41.7355 22.7954 41.9726 19.7824C42.2344 16.4483 42.0887 12.3486 41.5873 9.43435C40.9625 5.80389 40.3796 3.87753 39.5029 3.2601C39.0633 2.96374 38.5422 2.91434 37.8828 3.2601ZM18.587 3.65526C17.9078 3.63057 14.8899 11.2125 13.7252 15.7568C12.0275 22.4003 12.5928 29.5377 15.2677 34.6747C15.9444 35.9836 16.8829 38.2804 17.3522 39.7623C17.8362 41.2935 19.36 43.4915 20.9036 44.9486C24.1587 47.9617 24.7613 48.0605 24.7613 45.5661C24.7613 44.5041 25.3318 41.9356 26.0727 39.7623C27.6878 35.0698 27.8039 32.526 26.4604 26.253C23.8796 14.275 20.1726 3.65526 18.587 3.65526ZM18.2783 6.56949C18.7772 6.05085 19.2069 6.37193 19.6687 7.50799C20.9554 10.6692 23.6573 20.9432 24.8378 27.2656L26.1517 34.3536L24.6081 39.6141L22.9855 44.8498L21.442 43.615C20.5801 42.9235 19.1106 40.3797 18.2017 37.9841C17.2929 35.6132 16.063 32.452 15.4999 30.9701C13.8869 26.7223 13.6884 21.4124 14.959 16.8435C15.5814 14.6207 16.3618 11.8547 16.6582 10.7433C17.2558 8.49586 17.7794 7.11283 18.2783 6.56949ZM54.4742 11.0644C54.6594 11.0397 54.5952 13.4353 54.3977 16.3001C53.9679 22.5485 52.0539 27.1668 47.4529 32.8224C44.0422 36.9962 41.5873 41.8615 41.5873 44.6276C41.5873 46.2576 41.5799 46.3317 40.7377 45.1709C39.8709 43.9855 39.735 43.9607 38.7299 45.3932C38.031 46.4058 36.801 47.0479 34.9488 47.2454C33.4274 47.4183 32.1704 47.3195 32.1704 47.0232C32.1704 46.7021 33.1459 46.3317 34.3313 46.2576C36.8406 46.06 37.211 45.813 36.5689 44.7757C36.2775 44.3065 35.2698 44.2571 33.9461 44.5535C31.8715 44.998 31.8691 44.8992 33.0199 43.615C33.6695 42.8988 34.1782 42.1826 34.1782 41.9356C34.1782 41.6886 35.5217 39.54 37.1098 37.2185C38.6978 34.897 40.3747 31.958 40.8909 30.6491C41.4095 29.3648 42.348 27.4879 42.9753 26.5741C43.6051 25.6356 44.341 24.2279 44.5954 23.4129C45.5216 20.4245 52.9677 11.1385 54.4742 11.0644ZM39.1942 26.1789C39.4436 26.253 39.5795 26.6975 39.5795 27.5619C39.5795 28.5251 38.357 31.4394 36.801 34.0573C33.1335 40.2068 32.4642 40.5032 34.4869 35.1439C36.7023 29.2414 38.4409 25.9813 39.1942 26.1789Z" fill="#5C2700"/>
<defs>
<filter id="filter0_f_37_21" x="8.91648" y="34.8009" width="46.3647" height="27.2835" filterUnits="userSpaceOnUse" color-interpolation-filters="sRGB">
<feFlood flood-opacity="0" result="BackgroundImageFix"/>
<feBlend mode="normal" in="SourceGraphic" in2="BackgroundImageFix" result="shape"/>
<feGaussianBlur stdDeviation="1.78181" result="effect1_foregroundBlur_37_21"/>
</filter>
<radialGradient id="paint0_radial_37_21" cx="0" cy="0" r="1" gradientUnits="userSpaceOnUse" gradientTransform="translate(30.5273 49.5391) scale(28.4338 14.6067)">
<stop/>
<stop offset="1" stop-opacity="0"/>
</radialGradient>
</defs>
</svg>
