<svg width="160" height="130" viewBox="0 0 160 130" fill="none" xmlns="http://www.w3.org/2000/svg">
<g clip-path="url(#clip0_37_214)">
<path d="M140.461 21.0267C140.461 21.0267 81.4881 14.832 18.1602 22.0048C5.42767 23.961 4.42263 35.6982 4.42263 35.6982C1.74211 76.1271 4.08754 112.97 4.08754 112.97C5.48283 120.742 13.5313 125.985 15.4797 126.012C67.4834 126.714 145.486 126.338 145.486 126.338C156.543 124.381 157.548 114.6 157.548 114.6C158.553 69.1172 155.742 34.7207 155.537 33.0907C154.401 24.0689 140.459 21.0272 140.459 21.0272L140.461 21.0267Z" stroke="black" stroke-width="0.327198"/>
<path d="M17.9911 24.2866C80.8147 17.9289 140.627 23.7975 140.627 23.7975C154.532 25.2647 154.699 35.2087 154.699 35.2087C157.882 90.7976 157.047 111.29 156.71 113.62C155.613 121.203 145.539 126.355 145.539 126.355" stroke="black" stroke-width="0.327198"/>
<path d="M6.8626 119.233C3.78255 114.046 4.84873 108.628 4.84873 108.628C2.71637 65.1715 6.03335 34.9709 6.03335 34.9709C7.21798 25.5185 18.472 24.2507 18.472 24.2507" stroke="black" stroke-width="0.327198"/>
<path d="M95.7113 18.719C97.9943 15.6708 95.3277 12.2373 89.6349 15.529C83.9421 18.8206 72.4184 16.62 70.1529 15.0303C66.7119 12.6155 62.9236 15.9718 65.3848 18.7191" stroke="black" stroke-width="0.327198"/>
<path d="M64.671 15.8367L67.3956 6.38441L93.8131 6.15387L95.9454 14.7993" stroke="black" stroke-width="0.327198"/>
<path d="M63.1319 18.6028C60.5257 17.7959 60.4072 16.1821 60.4072 16.1821L63.7242 1.08146C81.4936 -0.762891 96.6572 0.735652 96.6572 0.735652L99.8557 16.0667C98.6711 17.9111 97.0126 18.4874 97.0126 18.4874" stroke="black" stroke-width="0.327198"/>
<path d="M29.0035 125.898L14.7404 125.728L13.0819 124.785C9.23391 122.598 5.96303 118.288 5.29566 114.527C4.95424 112.603 4.27025 87.7303 4.29204 78.0323C4.3211 65.1235 5.49664 40.0144 6.30412 35.0568C7.07798 30.3055 10.0928 27.1344 15.5273 25.3557C18.2497 24.4647 27.0382 23.6353 44.9251 22.5814C56.846 21.8791 90.3246 21.6041 104.684 22.0905C117.512 22.525 129.297 23.192 137.468 23.9459C140.57 24.232 143.503 24.4819 143.988 24.5011C144.472 24.5204 144.809 24.6294 144.736 24.7434C144.542 25.0496 146.227 25.3984 146.657 25.1407C146.896 24.9971 146.929 25.0691 146.753 25.3467C146.554 25.6592 146.634 25.7167 147.05 25.5613C147.434 25.4183 147.542 25.4709 147.382 25.7225C147.222 25.9741 147.33 26.0266 147.714 25.8836C148.097 25.7406 148.206 25.7931 148.046 26.0447C147.885 26.2963 147.994 26.3489 148.377 26.2059C148.69 26.0891 148.87 26.1139 148.776 26.261C148.526 26.6538 150.519 27.9885 150.96 27.7237C151.18 27.5917 151.245 27.6412 151.117 27.8428C150.848 28.2658 152.504 30.2476 152.919 29.9987C153.082 29.9004 153.118 30.0688 152.998 30.3729C152.851 30.7456 152.905 30.8507 153.164 30.6952C153.423 30.5397 153.477 30.6448 153.33 31.0175C153.183 31.3901 153.237 31.4952 153.496 31.3397C153.755 31.1842 153.809 31.2893 153.661 31.662C153.501 32.0668 153.561 32.1443 153.882 31.9512C154.159 31.7849 154.242 31.8126 154.106 32.0263C153.822 32.4732 154.225 34.3998 154.56 34.1983C154.703 34.1123 154.746 34.3193 154.655 34.6584C154.563 34.9975 154.726 39.747 155.016 45.213C156.4 71.3255 157.057 94.7662 156.721 106.069C156.996 118.25 154.534 119.492 146.527 125.558C145.437 126.204 145.063 126.208 94.3475 126.137C66.2526 126.098 36.8476 125.99 29.0029 125.897L29.0035 125.898Z" fill="url(#paint0_linear_37_214)"/>
<g filter="url(#filter0_f_37_214)">
<path d="M20.1505 27.4077C20.0754 27.4341 19.9891 27.433 19.9072 27.4376C19.7995 27.444 19.6919 27.451 19.5843 27.4578C19.4462 27.4665 19.3081 27.4742 19.1699 27.4816C19.0032 27.4905 18.8363 27.4982 18.6695 27.5056C18.4863 27.526 18.3025 27.5333 18.1221 27.5649C17.9203 27.59 17.7252 27.6348 17.5317 27.6817C17.291 27.7439 17.0491 27.8034 16.8072 27.863C16.5506 27.9223 16.3016 27.9965 16.0475 28.0608C13.0715 28.8529 23.4074 26.0671 21.1229 26.6714C20.8564 26.7408 20.5964 26.8219 20.3349 26.9002C20.0734 26.9833 19.8153 27.0721 19.558 27.1617C19.3026 27.2555 19.0537 27.3577 18.8031 27.4578C18.553 27.5591 18.3074 27.6655 18.0626 27.7731C17.8221 27.8838 17.5839 27.9978 17.3559 28.1212C17.1248 28.2407 16.9025 28.3681 16.6869 28.5013C16.4706 28.6364 16.2674 28.7816 16.0753 28.9339C15.8762 29.0857 15.6858 29.2429 15.5022 29.4042C15.3157 29.5689 15.1443 29.7418 14.9784 29.9171C14.8085 30.0976 14.6531 30.2845 14.5026 30.4733C14.3483 30.6679 14.2073 30.8676 14.0707 31.0687C13.9312 31.2786 13.7989 31.4909 13.6686 31.7037C13.535 31.9221 13.4121 32.1438 13.2932 32.3664C13.1716 32.5949 13.0603 32.826 12.9523 33.0578C12.8975 33.1759 12.8457 33.2947 12.7939 33.4135L6.79281 34.7377C6.8424 34.6166 6.89207 34.4954 6.94458 34.3748C7.04814 34.1376 7.15493 33.9012 7.27131 33.667C7.38543 33.4383 7.50315 33.2105 7.63147 32.9856C7.75605 32.7682 7.88695 32.5527 8.01828 32.3373C8.14929 32.128 8.28453 31.92 8.43225 31.7164C8.57687 31.5179 8.72616 31.3212 8.88905 31.13C9.04883 30.9435 9.21373 30.759 9.39333 30.5817C9.56956 30.4087 9.75102 30.2383 9.94985 30.0779C10.1481 29.9211 10.3338 29.756 10.5451 29.6075C10.7532 29.4592 10.9671 29.3147 11.1985 29.1848C11.4297 29.058 11.6541 28.925 11.8952 28.8074C12.1324 28.6872 12.3772 28.5742 12.6277 28.4686C12.8736 28.3602 13.125 28.2581 13.3763 28.1563C13.6261 28.0509 13.886 27.9609 14.1442 27.8666C14.3984 27.776 14.66 27.6968 14.9193 27.6139C17.1041 26.9658 19.3252 26.3803 21.5508 25.8078C21.8056 25.7396 22.0634 25.678 22.3212 25.6159C22.5723 25.555 22.8244 25.4948 23.0819 25.4492C23.3013 25.4133 23.5223 25.3846 23.7462 25.367C23.939 25.3578 24.1304 25.3397 24.3234 25.3327C24.4947 25.3204 24.6658 25.3073 24.8365 25.2909C24.9783 25.277 25.1201 25.2622 25.2605 25.2422C25.3695 25.2262 25.4785 25.2091 25.5835 25.1824C25.6578 25.1624 25.7281 25.1328 25.8061 25.1218L20.1505 27.4077Z" fill="white"/>
</g>
<g filter="url(#filter1_f_37_214)">
<path d="M6.05658 33.9661C85.3324 29.6896 154.16 33.9661 154.16 33.9661Z" fill="white"/>
</g>
<g opacity="0.56195" filter="url(#filter2_f_37_214)">
<path d="M56.76 32.1435C36.4259 32.0053 9.60243 33.9607 7.94725 31.6936L6.65012 29.9174L7.34396 28.9207C8.9316 26.6401 12.1904 24.91 16.4587 24.0818C19.914 23.4113 40.0126 22.3378 58.5014 21.8363C66.0297 21.6321 96.1989 21.6301 103.612 21.8332C118.124 22.231 135.339 22.9719 140.514 23.4214C146.315 23.9254 150.277 25.3891 152.597 27.8856C153.392 28.7415 153.445 32.8873 153.249 33.1506C152.458 34.2144 144.533 32.6701 132.47 32.8351C111.706 33.1191 76.6784 32.2789 56.76 32.1435Z" fill="white"/>
</g>
<path d="M19.215 126.191C20.4284 129.915 28.5387 131.964 31.0835 126.155" stroke="black" stroke-width="0.327198"/>
<path opacity="0.56195" d="M23.7991 129.342C21.8319 128.92 20.3024 127.929 19.6247 126.636L19.3773 126.164L22.047 126.24C23.5154 126.281 26.0838 126.315 27.7542 126.315H30.7919L30.5268 126.774C30.1256 127.469 29.0712 128.423 28.2686 128.818C26.9651 129.459 25.273 129.657 23.7991 129.342Z" fill="white"/>
<path d="M24.4492 129.461C23.6036 129.356 22.8252 129.136 22.0864 128.793C20.8946 128.241 20.0329 127.482 19.562 126.571C19.3459 126.153 19.2603 126.182 20.6036 126.213C22.4684 126.257 27.3464 126.316 29.1449 126.317C30.0513 126.317 30.793 126.328 30.793 126.341C30.793 126.402 30.4666 126.923 30.2553 127.2C29.2872 128.469 27.9275 129.23 26.2404 129.445C25.7411 129.509 24.8929 129.516 24.4492 129.461Z" fill="#035C72"/>
<path d="M131.329 126.192C132.542 129.915 140.601 132.054 143.146 126.246" stroke="black" stroke-width="0.327198"/>
<path d="M136.789 129.622C134.434 129.383 132.48 128.357 131.618 126.475C132.511 126.46 133.033 126.61 133.705 126.535C136.785 126.6 139.721 126.476 142.801 126.523C141.657 129.118 139.288 129.897 136.789 129.622Z" fill="#035C72"/>
<path d="M4.09623 109.508C4.00426 109.234 3.72155 101.322 3.49218 92.6035C3.27976 84.5281 3.38568 61.4911 3.66804 54.3565C4.10283 43.3704 4.56375 35.507 4.84099 34.3454C5.36126 32.1656 6.35506 29.9639 7.57295 28.293C8.58473 26.9049 10.5803 25.1233 12.0837 24.2659C14.8341 22.6976 16.2751 22.3726 23.9104 21.5991C58.4402 18.1011 97.8559 17.7909 135.029 20.7249L140.419 21.1503L142.627 21.8601C149.865 24.1874 154.453 28.0842 155.239 32.5702C155.942 36.5814 157.028 59.2292 157.421 78.0793C157.651 89.0586 157.639 92.9708 157.378 92.8859C157.224 92.8363 157.161 92.0872 157.134 90.008C157.016 80.9968 156.124 58.3824 155.276 42.898C154.826 34.6769 154.768 34.0208 154.382 32.8475C153.68 30.7154 151.623 27.7725 150.998 28.0061C150.796 28.0815 150.754 28.0395 150.833 27.8406C150.91 27.6436 150.669 27.3893 149.908 26.8654C148.509 25.9028 146.987 25.1502 146.675 25.2666C146.526 25.3223 146.462 25.2946 146.521 25.2008C146.714 24.8968 143.447 24.0259 140.917 23.7073C137.749 23.3082 122.805 22.3222 113.967 21.9291C92.2874 20.965 67.9069 20.9918 47.1294 22.0026C38.7596 22.4098 25.428 23.3862 18.6862 24.0858C17.1873 24.2414 14.5247 25.0243 13.0825 25.7335C9.133 27.6761 6.77628 30.5168 6.0064 34.2644C5.5674 36.4007 4.80397 47.5779 4.32543 58.8748C3.86559 69.7302 3.96517 92.9937 4.5226 104.942C4.61768 106.981 4.64948 108.887 4.59327 109.179C4.49094 109.709 4.22353 109.886 4.09626 109.507L4.09623 109.508Z" fill="#136478"/>
<path d="M148.382 125.113C148.382 124.997 149.16 124.281 150.112 123.52C151.929 122.069 154.213 119.633 155.173 118.121C155.486 117.629 155.972 116.607 156.254 115.85C157.119 113.524 157.656 113.974 156.92 116.409C156.323 118.386 154.988 120.638 153.567 122.066C151.926 123.715 148.382 125.798 148.382 125.113Z" fill="#136478"/>
<path d="M156.77 114.317C157.07 112.726 157.275 105.201 157.223 97.705L157.189 92.8133H157.569L157.57 97.9471C157.571 102.753 157.418 114.42 157.353 114.49C157.337 114.507 157.272 114.48 157.209 114.428C157.12 114.357 157.069 114.363 156.989 114.457C156.816 114.661 156.717 114.598 156.77 114.317Z" fill="#136478"/>
<path d="M65.351 18.3768C64.723 17.7005 64.6251 16.7063 65.0977 15.8049C65.565 14.9136 66.4412 14.4347 67.6158 14.4284C68.4237 14.4241 68.7892 14.5359 70.1082 15.1907C74.2252 17.2347 82.0162 17.9998 86.7462 16.8246C87.2935 16.6886 88.6908 16.141 89.8512 15.6077C92.4726 14.403 93.7168 14.1465 94.8665 14.5739C95.8271 14.9308 96.2809 15.5813 96.2814 16.602C96.2816 17.0014 96.1513 17.5763 95.9918 17.8795L95.7019 18.4308L85.2534 18.4129C79.5067 18.4031 72.7284 18.4455 70.1903 18.5071C66.1966 18.6041 65.5457 18.5866 65.351 18.3768Z" fill="#4D4D4D"/>
<path d="M63.112 18.5609C63.112 18.4856 62.8108 18.2918 62.4427 18.1303C61.6852 17.7979 60.625 16.7416 60.6227 16.3169C60.6211 16.0351 63.7854 1.39798 63.87 1.29502C64.0133 1.12102 71.717 0.614186 76.7525 0.447448C81.3373 0.295638 83.8502 0.295168 88.094 0.44519C93.2273 0.626826 96.3964 0.822269 96.5062 0.964058C96.5873 1.06887 99.6021 15.6935 99.6005 15.975C99.5975 16.5473 97.143 18.5362 96.4397 18.5362C96.0499 18.5362 96.0454 18.4922 96.3712 17.8791C96.7119 17.2381 96.7185 16.074 96.3856 15.3403C96.2367 15.0122 95.6322 12.7911 95.0423 10.4044C94.4524 8.01778 93.947 6.04291 93.9192 6.01612C93.8143 5.91403 67.4291 6.21285 67.322 6.31733C67.0949 6.53824 64.6041 15.4201 64.5037 16.3668C64.4176 17.1781 64.4603 17.4595 64.7547 18.0209L65.1094 18.6975H64.1109C63.5618 18.6975 63.1125 18.6359 63.1125 18.5606L63.112 18.5609Z" fill="url(#paint1_linear_37_214)"/>
</g>
<defs>
<filter id="filter0_f_37_214" x="3.08862" y="21.4176" width="26.4217" height="17.0244" filterUnits="userSpaceOnUse" color-interpolation-filters="sRGB">
<feFlood flood-opacity="0" result="BackgroundImageFix"/>
<feBlend mode="normal" in="SourceGraphic" in2="BackgroundImageFix" result="shape"/>
<feGaussianBlur stdDeviation="1.8521" result="effect1_foregroundBlur_37_214"/>
</filter>
<filter id="filter1_f_37_214" x="4.57637" y="30.5852" width="151.064" height="4.86111" filterUnits="userSpaceOnUse" color-interpolation-filters="sRGB">
<feFlood flood-opacity="0" result="BackgroundImageFix"/>
<feBlend mode="normal" in="SourceGraphic" in2="BackgroundImageFix" result="shape"/>
<feGaussianBlur stdDeviation="0.740105" result="effect1_foregroundBlur_37_214"/>
</filter>
<filter id="filter2_f_37_214" x="1.94873" y="16.9806" width="156.098" height="21.2481" filterUnits="userSpaceOnUse" color-interpolation-filters="sRGB">
<feFlood flood-opacity="0" result="BackgroundImageFix"/>
<feBlend mode="normal" in="SourceGraphic" in2="BackgroundImageFix" result="shape"/>
<feGaussianBlur stdDeviation="2.35069" result="effect1_foregroundBlur_37_214"/>
</filter>
<linearGradient id="paint0_linear_37_214" x1="77.7366" y1="60.8036" x2="77.7366" y2="124.413" gradientUnits="userSpaceOnUse">
<stop stop-color="#0088AA"/>
<stop offset="1" stop-color="#19C5F0"/>
</linearGradient>
<linearGradient id="paint1_linear_37_214" x1="78.9074" y1="-5.1523" x2="78.9074" y2="22.2339" gradientUnits="userSpaceOnUse">
<stop stop-color="#56B8FF"/>
<stop offset="1" stop-color="#4E6F86" stop-opacity="0.95536"/>
</linearGradient>
<clipPath id="clip0_37_214">
<rect width="160" height="130" fill="white"/>
</clipPath>
</defs>
</svg>
