<svg width="668" height="692" viewBox="0 0 668 692" fill="none" xmlns="http://www.w3.org/2000/svg">
<g clip-path="url(#clip0_37_177)">
<g opacity="0.75581" filter="url(#filter0_f_37_177)">
<path fill-rule="evenodd" clip-rule="evenodd" d="M-0.336243 544.172L370.361 692.039L667.894 481.486L297.197 383.696L-0.336243 544.172Z" fill="black"/>
</g>
<path fill-rule="evenodd" clip-rule="evenodd" d="M18.633 250.45V527.48L373.443 656.33L647.393 473.18V210L365.743 359.29L18.633 250.45Z" fill="#550000"/>
<g opacity="0.52536" filter="url(#filter1_f_37_177)">
<path fill-rule="evenodd" clip-rule="evenodd" d="M20.7646 521.845L370.592 652.478V382.515L20.7646 276.239V521.845Z" fill="url(#paint0_radial_37_177)"/>
</g>
<g opacity="0.52174" filter="url(#filter2_f_37_177)">
<path d="M375.294 365.875H367.387V650.397H375.294V365.875Z" fill="url(#paint1_linear_37_177)"/>
</g>
<path d="M299.281 102.04L654.931 158.11L654.061 253.63L374.171 395.27L13.431 284.37L14.015 186.72L299.285 102.04H299.281Z" fill="#550000"/>
<g opacity="0.5" filter="url(#filter3_f_37_177)">
<path fill-rule="evenodd" clip-rule="evenodd" d="M15.0706 214.402L16.4943 283.355L367.429 392.479L369.01 312.139L15.0706 214.402Z" fill="url(#paint2_linear_37_177)"/>
</g>
<g filter="url(#filter4_f_37_177)">
<path fill-rule="evenodd" clip-rule="evenodd" d="M17.6015 189.414L372.174 283.355L648.936 161.738V169.013L375.337 290.314L373.755 388.842H365.847V290.314L18.0754 197.796L17.6015 189.414Z" fill="url(#paint3_linear_37_177)"/>
</g>
<g filter="url(#filter5_f_37_177)">
<path fill-rule="evenodd" clip-rule="evenodd" d="M441.76 137.225L152.345 228.636L149.182 570.398L221.931 599.972L225.094 249.67L520.835 137.699L441.76 137.225Z" fill="black"/>
</g>
<path fill-rule="evenodd" clip-rule="evenodd" d="M446.911 125.33L150.431 223.22L146.021 574.92L219.681 601.39L223.391 244.37L520.841 136.57L446.911 125.33Z" fill="url(#paint4_linear_37_177)"/>
<g opacity="0.5" filter="url(#filter6_f_37_177)">
<path fill-rule="evenodd" clip-rule="evenodd" d="M658.3 178.692L651.975 253.138L370.467 393.429L368.886 313.315L658.3 178.692Z" fill="url(#paint5_linear_37_177)"/>
</g>
<g filter="url(#filter7_f_37_177)">
<path fill-rule="evenodd" clip-rule="evenodd" d="M147.6 147.346L492.367 235.436V574.193L558.791 529.595L555.627 204.755L214.024 129.634L147.6 147.346Z" fill="black"/>
</g>
<path fill-rule="evenodd" clip-rule="evenodd" d="M147.941 146.7L495.101 232.74L493.791 576.17L559.671 531.95L558.541 202.08L216.441 125.74L147.941 146.7Z" fill="url(#paint6_linear_37_177)"/>
<path fill-rule="evenodd" clip-rule="evenodd" d="M223.791 54.98C223.791 54.98 227.241 83.48 247.051 109.71C256.451 122.16 292.881 143.23 292.881 143.23L312.731 167.17C312.731 167.17 292.201 174.02 281.941 172.65C271.681 171.28 220.771 156.51 201.621 145.56C182.461 134.62 148.261 96.0399 146.201 87.1399C144.151 78.2499 134.701 55.13 142.911 40.07C151.121 25.02 167.011 18.04 171.801 17.35C176.591 16.67 221.741 39.93 221.741 39.93L223.791 54.98Z" fill="url(#paint7_radial_37_177)"/>
<g opacity="0.59058" filter="url(#filter8_f_37_177)">
<path fill-rule="evenodd" clip-rule="evenodd" d="M152.345 228.003L218.768 244.134L214.024 427.43L150.764 371.287L152.345 228.003Z" fill="url(#paint8_linear_37_177)"/>
</g>
<path fill-rule="evenodd" clip-rule="evenodd" d="M148.401 533.97L147.221 573.94L218.561 599.69L219.151 555.58L148.401 533.97Z" fill="url(#paint9_linear_37_177)"/>
<g opacity="0.67391" filter="url(#filter9_f_37_177)">
<path fill-rule="evenodd" clip-rule="evenodd" d="M558.131 209.368L504.421 233.21L507.041 379.799L559.441 333.294L558.131 209.368Z" fill="url(#paint10_linear_37_177)"/>
</g>
<g opacity="0.9529" filter="url(#filter10_f_37_177)">
<path fill-rule="evenodd" clip-rule="evenodd" d="M304.335 183.48C304.335 183.48 334.457 184.178 337.453 202.423C340.449 220.669 324.22 240.544 358.654 278.683C370.222 274.085 371.292 263.067 371.292 263.067L400.023 278.089C400.023 278.089 379.756 241.326 381.162 226.844C382.552 212.52 387.442 194.88 378.532 188.455C368.047 181.876 319.251 177.141 319.251 177.141L304.335 183.48Z" fill="black"/>
</g>
<path fill-rule="evenodd" clip-rule="evenodd" d="M306.107 181.586C306.107 181.586 336.229 182.284 339.225 200.53C342.222 218.775 326.008 238.493 360.441 276.632C371.995 272.192 373.079 261.016 373.079 261.016L401.796 276.196C401.796 276.196 381.53 239.432 382.935 224.95C384.34 210.468 389.214 192.987 380.304 186.561C369.835 179.825 321.038 175.09 321.038 175.09L306.107 181.586Z" fill="url(#paint11_linear_37_177)"/>
<g filter="url(#filter11_f_37_177)">
<path fill-rule="evenodd" clip-rule="evenodd" d="M228.257 162.212C228.257 162.212 199.79 176.762 185.557 181.19C172.905 185.619 98.5742 180.083 98.5742 180.083L136.53 192.419L127.041 214.718C127.041 214.718 182.393 215.351 202.953 212.504C233.001 208.392 242.491 184.512 283.61 183.405C308.914 182.772 321.565 185.619 321.565 185.619C321.565 185.619 288.354 158.891 228.257 162.212Z" fill="black"/>
</g>
<g filter="url(#filter12_f_37_177)">
<path fill-rule="evenodd" clip-rule="evenodd" d="M199.79 31.7388C199.79 31.7388 182.394 21.7753 176.068 21.7753C168.16 21.7753 144.438 30.948 142.856 43.2837C139.693 55.7775 136.53 81.556 147.601 96.4221C160.253 111.446 177.65 127.103 177.65 127.103C177.65 127.103 150.764 77.1278 161.835 54.1961C174.487 29.0502 199.79 31.7388 199.79 31.7388Z" fill="url(#paint12_linear_37_177)"/>
</g>
<path fill-rule="evenodd" clip-rule="evenodd" d="M212.031 0.179939C182.271 2.26994 150.831 23.2399 140.371 41.1999C126.421 65.1499 148.391 108.33 180.671 133.29C224.921 167.49 291.111 168.76 291.111 168.76C291.111 167.73 334.341 180.71 316.811 130.16C291.631 57.5899 274.621 22.1399 240.701 5.11993C232.011 0.759933 221.951 -0.520061 212.031 0.179939ZM170.411 28.5199C200.601 19.1099 219.451 60.1099 232.791 76.7899C249.211 97.3099 290.611 157.84 290.611 157.84L299.011 168.71C299.011 168.71 294.441 168.79 248.601 157.84C202.771 146.89 169.811 115.84 168.441 113.1C141.131 80.6899 133.091 40.6799 170.411 28.5199Z" fill="url(#paint13_radial_37_177)"/>
<path fill-rule="evenodd" clip-rule="evenodd" d="M233.491 158.65C233.491 158.65 204.421 173.18 191.011 177.65C177.601 182.12 103.821 176.53 103.821 176.53L141.831 188.83L131.761 211.18C131.761 211.18 187.501 211.73 207.781 208.95C237.701 204.85 246.901 181 288.261 179.88C313.071 179.21 326.271 182.12 326.271 182.12C326.271 182.12 292.731 155.29 233.491 158.65Z" fill="url(#paint14_linear_37_177)"/>
<g filter="url(#filter13_f_37_177)">
<path fill-rule="evenodd" clip-rule="evenodd" d="M378.5 156.203C378.5 156.203 329.473 133.587 318.402 133.587C307.332 133.587 288.354 155.254 294.68 168.538C299.424 181.981 338.962 191.312 351.614 191.312C362.685 188.465 372.174 184.986 383.244 179.925C383.244 172.808 378.5 156.203 378.5 156.203Z" fill="black"/>
</g>
<g filter="url(#filter14_f_37_177)">
<path fill-rule="evenodd" clip-rule="evenodd" d="M251.98 86.933L296.262 156.203L318.402 139.755C318.402 139.755 296.262 90.2543 283.61 68.2714C270.958 46.2886 263.05 36.3251 263.05 36.3251C263.05 36.3251 282.028 82.5048 277.284 91.3612C272.539 100.218 253.561 86.933 251.98 86.933Z" fill="url(#paint15_linear_37_177)"/>
</g>
<path fill-rule="evenodd" clip-rule="evenodd" d="M377.811 155.08C372.921 150.96 328.251 131.05 316.901 131.05C305.551 131.05 286.991 152.71 292.141 166.12C297.301 179.53 337.531 188.82 349.911 188.82C360.941 185.99 370.961 182.49 381.891 177.47C381.891 170.25 384.041 162.18 377.811 155.08Z" fill="url(#paint16_radial_37_177)"/>
<path fill-rule="evenodd" clip-rule="evenodd" d="M359.241 188.38C359.241 188.38 394.781 201.41 416.671 204.83C438.561 208.25 483.071 215.75 494.021 211.64C504.961 207.54 564.481 195.22 572.691 182.23C580.901 169.23 528.911 167.17 528.911 167.17C528.911 167.17 499.491 185.65 478.961 187.01C458.441 188.38 398.241 174.02 398.241 174.02L359.931 184.28L359.241 188.38Z" fill="url(#paint17_linear_37_177)"/>
<g filter="url(#filter15_f_37_177)">
<path fill-rule="evenodd" clip-rule="evenodd" d="M310.495 133.904C310.495 133.904 316.821 131.215 321.565 132.797C327.891 134.853 332.636 135.643 346.87 141.811C362.685 148.612 373.755 153.83 375.337 154.621C383.244 162.212 376.918 170.12 378.5 178.976C372.174 181.665 356.358 187.042 353.195 187.516C342.125 177.237 354.777 159.682 370.592 158.417C367.429 154.938 351.614 146.872 346.87 144.974C334.218 139.755 319.984 134.694 319.984 134.694C319.984 134.694 305.751 132.955 299.425 144.342C301.006 138.648 310.495 133.271 310.495 133.904Z" fill="url(#paint18_linear_37_177)"/>
</g>
<path fill-rule="evenodd" clip-rule="evenodd" d="M364.266 183.563L397.478 175.339C397.478 175.339 452.83 128.843 459.156 125.996C490.786 100.059 530.324 90.4124 561.954 102.116C561.954 102.116 558.791 60.364 547.72 54.9869C536.65 49.4516 506.601 45.3397 506.601 45.3397C506.601 45.3397 465.482 72.6997 460.738 77.4442C455.993 82.1887 386.408 150.667 386.408 150.667L365.848 176.288L361.103 185.144L364.266 183.563Z" fill="url(#paint19_linear_37_177)"/>
<path fill-rule="evenodd" clip-rule="evenodd" d="M535.068 32.2133C481.297 35.6926 376.918 159.682 370.592 166.483C364.266 173.283 354.777 188.149 354.777 187.358C354.777 186.568 422.782 217.091 479.716 213.611C536.65 210.132 609.399 175.497 615.725 125.996C625.214 69.0622 587.258 28.8922 535.068 32.2133ZM498.693 55.7775C516.09 52.6145 554.045 52.2984 547.719 109.865C542.975 145.449 517.672 201.908 465.482 204.755C413.293 207.444 361.103 184.67 361.103 184.037C361.103 184.037 444.923 95.3151 449.667 92.4684C452.83 89.7799 478.134 60.8383 498.693 55.7775Z" fill="url(#paint20_linear_37_177)"/>
<g opacity="0.55797" filter="url(#filter16_f_37_177)">
<path fill-rule="evenodd" clip-rule="evenodd" d="M138.112 49.7678C136.53 36.7995 161.834 17.9797 183.975 9.75588C204.534 1.37393 231.42 4.06247 231.42 4.06247C231.42 4.06247 207.698 14.6584 198.209 21.7752C179.231 19.8774 160.252 28.2594 160.252 28.2594C160.252 28.2594 149.182 32.6876 138.112 49.7678Z" fill="url(#paint21_linear_37_177)"/>
</g>
<g opacity="0.55797" filter="url(#filter17_f_37_177)">
<path fill-rule="evenodd" clip-rule="evenodd" d="M486.463 56.7601C502.821 42.0108 512.293 36.0679 538.689 34.1638C561.754 32.6326 594.905 57.9109 594.905 57.9109C594.905 57.9109 570.026 74.4403 559.152 79.413C551.68 62.4502 524.92 51.7777 524.92 51.7777C524.92 51.7777 508.493 45.5814 486.463 56.7601Z" fill="url(#paint22_linear_37_177)"/>
</g>
<g filter="url(#filter18_f_37_177)">
<path fill-rule="evenodd" clip-rule="evenodd" d="M550.884 66.2153C550.884 66.2153 561.953 94.0498 555.627 117.456C549.301 140.862 539.812 154.779 539.812 154.779C539.812 154.779 571.442 160.789 587.257 153.989C603.072 147.03 610.98 133.904 610.98 133.904C610.98 133.904 618.888 94.8405 609.399 76.6533C599.91 58.466 587.257 54.0377 587.257 54.0377C587.257 54.0377 565.117 54.0378 550.884 66.2153Z" fill="url(#paint23_linear_37_177)"/>
</g>
</g>
<defs>
<filter id="filter0_f_37_177" x="-34.0545" y="349.978" width="735.667" height="375.779" filterUnits="userSpaceOnUse" color-interpolation-filters="sRGB">
<feFlood flood-opacity="0" result="BackgroundImageFix"/>
<feBlend mode="normal" in="SourceGraphic" in2="BackgroundImageFix" result="shape"/>
<feGaussianBlur stdDeviation="16.8591" result="effect1_foregroundBlur_37_177"/>
</filter>
<filter id="filter1_f_37_177" x="11.6978" y="267.172" width="367.961" height="394.373" filterUnits="userSpaceOnUse" color-interpolation-filters="sRGB">
<feFlood flood-opacity="0" result="BackgroundImageFix"/>
<feBlend mode="normal" in="SourceGraphic" in2="BackgroundImageFix" result="shape"/>
<feGaussianBlur stdDeviation="4.5334" result="effect1_foregroundBlur_37_177"/>
</filter>
<filter id="filter2_f_37_177" x="361.727" y="360.215" width="19.2267" height="295.841" filterUnits="userSpaceOnUse" color-interpolation-filters="sRGB">
<feFlood flood-opacity="0" result="BackgroundImageFix"/>
<feBlend mode="normal" in="SourceGraphic" in2="BackgroundImageFix" result="shape"/>
<feGaussianBlur stdDeviation="2.82975" result="effect1_foregroundBlur_37_177"/>
</filter>
<filter id="filter3_f_37_177" x="9.37655" y="208.708" width="365.328" height="189.465" filterUnits="userSpaceOnUse" color-interpolation-filters="sRGB">
<feFlood flood-opacity="0" result="BackgroundImageFix"/>
<feBlend mode="normal" in="SourceGraphic" in2="BackgroundImageFix" result="shape"/>
<feGaussianBlur stdDeviation="2.847" result="effect1_foregroundBlur_37_177"/>
</filter>
<filter id="filter4_f_37_177" x="8.38338" y="152.52" width="649.771" height="245.54" filterUnits="userSpaceOnUse" color-interpolation-filters="sRGB">
<feFlood flood-opacity="0" result="BackgroundImageFix"/>
<feBlend mode="normal" in="SourceGraphic" in2="BackgroundImageFix" result="shape"/>
<feGaussianBlur stdDeviation="4.60906" result="effect1_foregroundBlur_37_177"/>
</filter>
<filter id="filter5_f_37_177" x="143.142" y="131.185" width="383.733" height="474.827" filterUnits="userSpaceOnUse" color-interpolation-filters="sRGB">
<feFlood flood-opacity="0" result="BackgroundImageFix"/>
<feBlend mode="normal" in="SourceGraphic" in2="BackgroundImageFix" result="shape"/>
<feGaussianBlur stdDeviation="3.0201" result="effect1_foregroundBlur_37_177"/>
</filter>
<filter id="filter6_f_37_177" x="363.11" y="172.915" width="300.967" height="226.29" filterUnits="userSpaceOnUse" color-interpolation-filters="sRGB">
<feFlood flood-opacity="0" result="BackgroundImageFix"/>
<feBlend mode="normal" in="SourceGraphic" in2="BackgroundImageFix" result="shape"/>
<feGaussianBlur stdDeviation="2.88823" result="effect1_foregroundBlur_37_177"/>
</filter>
<filter id="filter7_f_37_177" x="142.981" y="125.015" width="420.429" height="453.798" filterUnits="userSpaceOnUse" color-interpolation-filters="sRGB">
<feFlood flood-opacity="0" result="BackgroundImageFix"/>
<feBlend mode="normal" in="SourceGraphic" in2="BackgroundImageFix" result="shape"/>
<feGaussianBlur stdDeviation="2.30945" result="effect1_foregroundBlur_37_177"/>
</filter>
<filter id="filter8_f_37_177" x="145.989" y="223.228" width="77.5531" height="208.976" filterUnits="userSpaceOnUse" color-interpolation-filters="sRGB">
<feFlood flood-opacity="0" result="BackgroundImageFix"/>
<feBlend mode="normal" in="SourceGraphic" in2="BackgroundImageFix" result="shape"/>
<feGaussianBlur stdDeviation="2.38719" result="effect1_foregroundBlur_37_177"/>
</filter>
<filter id="filter9_f_37_177" x="500.467" y="205.413" width="62.9288" height="178.34" filterUnits="userSpaceOnUse" color-interpolation-filters="sRGB">
<feFlood flood-opacity="0" result="BackgroundImageFix"/>
<feBlend mode="normal" in="SourceGraphic" in2="BackgroundImageFix" result="shape"/>
<feGaussianBlur stdDeviation="1.97737" result="effect1_foregroundBlur_37_177"/>
</filter>
<filter id="filter10_f_37_177" x="301.82" y="174.626" width="100.718" height="106.572" filterUnits="userSpaceOnUse" color-interpolation-filters="sRGB">
<feFlood flood-opacity="0" result="BackgroundImageFix"/>
<feBlend mode="normal" in="SourceGraphic" in2="BackgroundImageFix" result="shape"/>
<feGaussianBlur stdDeviation="1.25753" result="effect1_foregroundBlur_37_177"/>
</filter>
<filter id="filter11_f_37_177" x="94.1495" y="157.502" width="231.841" height="61.7007" filterUnits="userSpaceOnUse" color-interpolation-filters="sRGB">
<feFlood flood-opacity="0" result="BackgroundImageFix"/>
<feBlend mode="normal" in="SourceGraphic" in2="BackgroundImageFix" result="shape"/>
<feGaussianBlur stdDeviation="2.21234" result="effect1_foregroundBlur_37_177"/>
</filter>
<filter id="filter12_f_37_177" x="135.158" y="17.0588" width="69.3487" height="114.761" filterUnits="userSpaceOnUse" color-interpolation-filters="sRGB">
<feFlood flood-opacity="0" result="BackgroundImageFix"/>
<feBlend mode="normal" in="SourceGraphic" in2="BackgroundImageFix" result="shape"/>
<feGaussianBlur stdDeviation="2.35822" result="effect1_foregroundBlur_37_177"/>
</filter>
<filter id="filter13_f_37_177" x="290.769" y="130.937" width="95.1253" height="63.0247" filterUnits="userSpaceOnUse" color-interpolation-filters="sRGB">
<feFlood flood-opacity="0" result="BackgroundImageFix"/>
<feBlend mode="normal" in="SourceGraphic" in2="BackgroundImageFix" result="shape"/>
<feGaussianBlur stdDeviation="1.32503" result="effect1_foregroundBlur_37_177"/>
</filter>
<filter id="filter14_f_37_177" x="248.661" y="33.0063" width="73.0598" height="126.515" filterUnits="userSpaceOnUse" color-interpolation-filters="sRGB">
<feFlood flood-opacity="0" result="BackgroundImageFix"/>
<feBlend mode="normal" in="SourceGraphic" in2="BackgroundImageFix" result="shape"/>
<feGaussianBlur stdDeviation="1.6594" result="effect1_foregroundBlur_37_177"/>
</filter>
<filter id="filter15_f_37_177" x="297.756" y="130.629" width="83.3248" height="58.5566" filterUnits="userSpaceOnUse" color-interpolation-filters="sRGB">
<feFlood flood-opacity="0" result="BackgroundImageFix"/>
<feBlend mode="normal" in="SourceGraphic" in2="BackgroundImageFix" result="shape"/>
<feGaussianBlur stdDeviation="0.834605" result="effect1_foregroundBlur_37_177"/>
</filter>
<filter id="filter16_f_37_177" x="135.843" y="1.45341" width="97.7754" height="50.5128" filterUnits="userSpaceOnUse" color-interpolation-filters="sRGB">
<feFlood flood-opacity="0" result="BackgroundImageFix"/>
<feBlend mode="normal" in="SourceGraphic" in2="BackgroundImageFix" result="shape"/>
<feGaussianBlur stdDeviation="1.09922" result="effect1_foregroundBlur_37_177"/>
</filter>
<filter id="filter17_f_37_177" x="484.264" y="31.8984" width="112.839" height="49.713" filterUnits="userSpaceOnUse" color-interpolation-filters="sRGB">
<feFlood flood-opacity="0" result="BackgroundImageFix"/>
<feBlend mode="normal" in="SourceGraphic" in2="BackgroundImageFix" result="shape"/>
<feGaussianBlur stdDeviation="1.09924" result="effect1_foregroundBlur_37_177"/>
</filter>
<filter id="filter18_f_37_177" x="537.273" y="51.4991" width="79.3339" height="108.27" filterUnits="userSpaceOnUse" color-interpolation-filters="sRGB">
<feFlood flood-opacity="0" result="BackgroundImageFix"/>
<feBlend mode="normal" in="SourceGraphic" in2="BackgroundImageFix" result="shape"/>
<feGaussianBlur stdDeviation="1.26933" result="effect1_foregroundBlur_37_177"/>
</filter>
<radialGradient id="paint0_radial_37_177" cx="0" cy="0" r="1" gradientUnits="userSpaceOnUse" gradientTransform="translate(395.221 672.438) rotate(-59.4892) scale(400.151 414.461)">
<stop stop-color="white"/>
<stop offset="1" stop-color="white" stop-opacity="0"/>
</radialGradient>
<linearGradient id="paint1_linear_37_177" x1="370.987" y1="565.157" x2="370.987" y2="303.768" gradientUnits="userSpaceOnUse">
<stop stop-color="white"/>
<stop offset="1" stop-color="white" stop-opacity="0"/>
</linearGradient>
<linearGradient id="paint2_linear_37_177" x1="191.787" y1="347.469" x2="204.598" y2="277.567" gradientUnits="userSpaceOnUse">
<stop stop-color="white"/>
<stop offset="1" stop-color="#4D4D4D" stop-opacity="0"/>
</linearGradient>
<linearGradient id="paint3_linear_37_177" x1="369.232" y1="297.02" x2="373.977" y2="414.841" gradientUnits="userSpaceOnUse">
<stop stop-color="white"/>
<stop offset="1" stop-color="white" stop-opacity="0"/>
</linearGradient>
<linearGradient id="paint4_linear_37_177" x1="230.049" y1="612.512" x2="261.837" y2="304.12" gradientUnits="userSpaceOnUse">
<stop stop-color="white"/>
<stop offset="1" stop-color="#E6E6E6"/>
</linearGradient>
<linearGradient id="paint5_linear_37_177" x1="545.413" y1="305.792" x2="519.338" y2="244.664" gradientUnits="userSpaceOnUse">
<stop stop-color="white"/>
<stop offset="1" stop-color="#4D4D4D" stop-opacity="0"/>
</linearGradient>
<linearGradient id="paint6_linear_37_177" x1="449.72" y1="206.541" x2="641.081" y2="606.186" gradientUnits="userSpaceOnUse">
<stop stop-color="#E6E6E6"/>
<stop offset="1" stop-color="#666666"/>
</linearGradient>
<radialGradient id="paint7_radial_37_177" cx="0" cy="0" r="1" gradientUnits="userSpaceOnUse" gradientTransform="translate(168.881 36.1483) rotate(60.6223) scale(174.675 268.995)">
<stop stop-color="#333333"/>
<stop offset="1" stop-color="#EFEFEF"/>
</radialGradient>
<linearGradient id="paint8_linear_37_177" x1="184.196" y1="177.3" x2="184.196" y2="369.136" gradientUnits="userSpaceOnUse">
<stop stop-color="#4D4D4D"/>
<stop offset="1" stop-color="#4D4D4D" stop-opacity="0"/>
</linearGradient>
<linearGradient id="paint9_linear_37_177" x1="182.288" y1="634.495" x2="195.256" y2="566.807" gradientUnits="userSpaceOnUse">
<stop/>
<stop offset="1" stop-opacity="0"/>
</linearGradient>
<linearGradient id="paint10_linear_37_177" x1="532.141" y1="172.61" x2="532.141" y2="331.513" gradientUnits="userSpaceOnUse">
<stop stop-color="#4D4D4D"/>
<stop offset="1" stop-color="#4D4D4D" stop-opacity="0"/>
</linearGradient>
<linearGradient id="paint11_linear_37_177" x1="333.059" y1="153.058" x2="383.814" y2="262.058" gradientUnits="userSpaceOnUse">
<stop stop-color="#B3B3B3"/>
<stop offset="1" stop-color="white"/>
</linearGradient>
<linearGradient id="paint12_linear_37_177" x1="169.742" y1="136.276" x2="160.253" y2="49.1352" gradientUnits="userSpaceOnUse">
<stop stop-color="#7F7F7F" stop-opacity="0"/>
<stop offset="1"/>
</linearGradient>
<radialGradient id="paint13_radial_37_177" cx="0" cy="0" r="1" gradientUnits="userSpaceOnUse" gradientTransform="translate(313.109 161.627) rotate(-129.294) scale(265.414 254.764)">
<stop stop-color="white"/>
<stop offset="1" stop-color="#B3B3B3"/>
</radialGradient>
<linearGradient id="paint14_linear_37_177" x1="258.306" y1="173.441" x2="169.742" y2="198.903" gradientUnits="userSpaceOnUse">
<stop stop-color="#B3B3B3"/>
<stop offset="1" stop-color="white"/>
</linearGradient>
<linearGradient id="paint15_linear_37_177" x1="308.913" y1="144.183" x2="269.375" y2="66.0577" gradientUnits="userSpaceOnUse">
<stop stop-color="#333333"/>
<stop offset="1" stop-color="white" stop-opacity="0"/>
</linearGradient>
<radialGradient id="paint16_radial_37_177" cx="0" cy="0" r="1" gradientUnits="userSpaceOnUse" gradientTransform="translate(320.856 147.448) rotate(24.8429) scale(176.787 350.373)">
<stop stop-color="white"/>
<stop offset="1"/>
</radialGradient>
<linearGradient id="paint17_linear_37_177" x1="391.151" y1="182.772" x2="490.786" y2="182.772" gradientUnits="userSpaceOnUse">
<stop stop-color="#CCCCCC"/>
<stop offset="1" stop-color="#191919"/>
</linearGradient>
<linearGradient id="paint18_linear_37_177" x1="372.174" y1="200.959" x2="312.077" y2="125.522" gradientUnits="userSpaceOnUse">
<stop/>
<stop offset="1" stop-opacity="0"/>
</linearGradient>
<linearGradient id="paint19_linear_37_177" x1="501.857" y1="85.3516" x2="334.218" y2="202.225" gradientUnits="userSpaceOnUse">
<stop stop-color="#333333"/>
<stop offset="1" stop-color="#CCCCCC"/>
</linearGradient>
<linearGradient id="paint20_linear_37_177" x1="641.029" y1="52.4565" x2="460.738" y2="203.806" gradientUnits="userSpaceOnUse">
<stop stop-color="#CCCCCC"/>
<stop offset="1" stop-color="white"/>
</linearGradient>
<linearGradient id="paint21_linear_37_177" x1="134.949" y1="23.0405" x2="199.79" y2="8.33269" gradientUnits="userSpaceOnUse">
<stop/>
<stop offset="1" stop-opacity="0"/>
</linearGradient>
<linearGradient id="paint22_linear_37_177" x1="530.106" y1="16.7453" x2="548.757" y2="55.7382" gradientUnits="userSpaceOnUse">
<stop/>
<stop offset="1" stop-opacity="0"/>
</linearGradient>
<linearGradient id="paint23_linear_37_177" x1="566.698" y1="41.0694" x2="576.187" y2="164.268" gradientUnits="userSpaceOnUse">
<stop stop-color="white"/>
<stop offset="1" stop-color="white" stop-opacity="0"/>
</linearGradient>
<clipPath id="clip0_37_177">
<rect width="668" height="692" fill="white"/>
</clipPath>
</defs>
</svg>
