<svg width="106" height="106" viewBox="0 0 106 106" fill="none" xmlns="http://www.w3.org/2000/svg">
<g clip-path="url(#clip0_37_250)">
<g filter="url(#filter0_f_37_250)">
<path d="M83.32 3H23.32C12.2743 3 3.32001 11.9543 3.32001 23V83C3.32001 94.0457 12.2743 103 23.32 103H83.32C94.3657 103 103.32 94.0457 103.32 83V23C103.32 11.9543 94.3657 3 83.32 3Z" fill="#2C9E06"/>
<path d="M83.32 3H23.32C12.2743 3 3.32001 11.9543 3.32001 23V83C3.32001 94.0457 12.2743 103 23.32 103H83.32C94.3657 103 103.32 94.0457 103.32 83V23C103.32 11.9543 94.3657 3 83.32 3Z" stroke="black" stroke-width="2" stroke-linecap="round"/>
</g>
<path d="M95.6072 53.6081C95.6072 62.5151 77.3917 69.7357 54.9217 69.7357C32.4518 69.7357 14.2362 62.5151 14.2362 53.6081C14.2362 44.7011 32.4518 37.4805 54.9217 37.4805C77.3917 37.4805 95.6072 44.7011 95.6072 53.6081Z" fill="#503700" stroke="black" stroke-width="1.45141" stroke-linecap="round"/>
<path d="M88.3987 62.6651C85.5098 65.4658 74.5828 69.8851 54.6763 69.8851C34.7698 69.8851 24.9475 65.1185 20.5968 62.1563C30.7738 52.3715 40.9505 48.8874 55.6738 49.1713C72.1882 49.4897 81.6679 50.939 88.3987 62.6651Z" fill="white" stroke="black" stroke-width="1.15252" stroke-linecap="round"/>
</g>
<defs>
<filter id="filter0_f_37_250" x="1.12001" y="0.8" width="104.4" height="104.4" filterUnits="userSpaceOnUse" color-interpolation-filters="sRGB">
<feFlood flood-opacity="0" result="BackgroundImageFix"/>
<feBlend mode="normal" in="SourceGraphic" in2="BackgroundImageFix" result="shape"/>
<feGaussianBlur stdDeviation="0.6" result="effect1_foregroundBlur_37_250"/>
</filter>
<clipPath id="clip0_37_250">
<rect width="104.88" height="104.88" fill="white" transform="translate(0.880005 0.559998)"/>
</clipPath>
</defs>
</svg>
